<svg xmlns="http://www.w3.org/2000/svg" width="327" height="200" fill="none" viewBox="0 0 327 200"><path fill="#B21FF1" stroke="#B21FF1" stroke-width="3" d="M75.7462 65.2475L71.5459 129.035C70.271 148.396 84.9332 165.125 104.295 166.4C105.889 166.505 107.489 166.501 109.083 166.389L227.193 158.03C246.548 156.66 261.128 139.86 259.759 120.505C259.619 118.528 259.312 116.567 258.841 114.642L247.744 69.2429C244.199 54.7444 231.881 44.0677 217.027 42.6185L114.215 32.5888C94.9028 30.7048 77.7202 44.8329 75.8363 64.1448C75.8004 64.5119 75.7704 64.8795 75.7462 65.2475Z" opacity=".03"/><path fill="#B21FF1" d="M119.737 190.912C119.737 191.488 119.593 192.021 119.305 192.512C119.017 192.992 118.59 193.381 118.025 193.68C117.46 193.968 116.772 194.112 115.961 194.112C115.161 194.112 114.446 193.979 113.817 193.712C113.188 193.435 112.681 193.04 112.297 192.528C111.924 192.016 111.71 191.419 111.657 190.736H114.057C114.11 191.195 114.292 191.579 114.601 191.888C114.921 192.187 115.342 192.336 115.865 192.336C116.334 192.336 116.692 192.213 116.937 191.968C117.193 191.712 117.321 191.387 117.321 190.992C117.321 190.64 117.22 190.352 117.017 190.128C116.814 189.893 116.558 189.707 116.249 189.568C115.94 189.429 115.513 189.269 114.969 189.088C114.265 188.853 113.689 188.624 113.241 188.4C112.793 188.165 112.409 187.829 112.089 187.392C111.78 186.955 111.625 186.384 111.625 185.68C111.625 184.709 111.972 183.947 112.665 183.392C113.369 182.827 114.297 182.544 115.449 182.544C116.644 182.544 117.593 182.832 118.297 183.408C119.012 183.984 119.417 184.752 119.513 185.712H117.081C117.017 185.307 116.846 184.976 116.569 184.72C116.292 184.453 115.913 184.32 115.433 184.32C115.017 184.32 114.681 184.432 114.425 184.656C114.169 184.869 114.041 185.184 114.041 185.6C114.041 185.931 114.137 186.208 114.329 186.432C114.532 186.645 114.782 186.821 115.081 186.96C115.39 187.099 115.806 187.253 116.329 187.424C117.054 187.68 117.641 187.92 118.089 188.144C118.548 188.368 118.937 188.704 119.257 189.152C119.577 189.6 119.737 190.187 119.737 190.912ZM129.879 185.136V194H127.623V192.208C127.388 192.805 126.999 193.275 126.455 193.616C125.922 193.947 125.303 194.112 124.599 194.112C123.575 194.112 122.759 193.776 122.151 193.104C121.543 192.432 121.239 191.493 121.239 190.288V185.136H123.479V190.032C123.479 190.736 123.66 191.285 124.023 191.68C124.386 192.064 124.876 192.256 125.495 192.256C126.146 192.256 126.663 192.048 127.047 191.632C127.431 191.216 127.623 190.619 127.623 189.84V185.136H129.879ZM134.186 186.832C134.517 186.267 134.954 185.824 135.498 185.504C136.042 185.173 136.65 185.008 137.322 185.008V187.424H136.666C135.013 187.424 134.186 188.192 134.186 189.728V194H131.93V185.136H134.186V186.832ZM142.955 183.6C142.294 183.557 141.83 183.653 141.563 183.888C141.296 184.123 141.163 184.533 141.163 185.12V185.136H142.955V187.04H141.163V194H138.907V187.04H137.771V185.136H138.907V184.928C138.907 183.872 139.206 183.061 139.803 182.496C140.411 181.92 141.307 181.632 142.491 181.632C142.694 181.632 142.848 181.637 142.955 181.648V183.6ZM147.777 185.024C148.524 185.024 149.164 185.2 149.697 185.552C150.231 185.904 150.609 186.379 150.833 186.976V185.136H153.073V194H150.833V192.144C150.609 192.741 150.231 193.221 149.697 193.584C149.164 193.936 148.524 194.112 147.777 194.112C147.031 194.112 146.359 193.931 145.761 193.568C145.164 193.205 144.695 192.683 144.353 192C144.023 191.307 143.857 190.496 143.857 189.568C143.857 188.64 144.023 187.835 144.353 187.152C144.695 186.459 145.164 185.931 145.761 185.568C146.359 185.205 147.031 185.024 147.777 185.024ZM148.481 186.992C147.777 186.992 147.212 187.221 146.785 187.68C146.359 188.139 146.145 188.768 146.145 189.568C146.145 190.368 146.359 190.997 146.785 191.456C147.212 191.904 147.777 192.128 148.481 192.128C149.164 192.128 149.724 191.899 150.161 191.44C150.609 190.971 150.833 190.347 150.833 189.568C150.833 188.779 150.609 188.155 150.161 187.696C149.724 187.227 149.164 186.992 148.481 186.992ZM159.102 185.024C160.243 185.024 161.192 185.333 161.95 185.952C162.718 186.571 163.198 187.413 163.39 188.48H161.006C160.91 188.011 160.691 187.643 160.35 187.376C160.008 187.099 159.576 186.96 159.054 186.96C158.456 186.96 157.955 187.184 157.55 187.632C157.155 188.069 156.958 188.715 156.958 189.568C156.958 190.421 157.155 191.072 157.55 191.52C157.955 191.957 158.456 192.176 159.054 192.176C159.576 192.176 160.008 192.043 160.35 191.776C160.691 191.499 160.91 191.125 161.006 190.656H163.39C163.198 191.723 162.718 192.565 161.95 193.184C161.192 193.803 160.243 194.112 159.102 194.112C158.238 194.112 157.47 193.931 156.798 193.568C156.126 193.195 155.603 192.667 155.23 191.984C154.856 191.301 154.67 190.496 154.67 189.568C154.67 188.64 154.856 187.835 155.23 187.152C155.603 186.459 156.126 185.931 156.798 185.568C157.47 185.205 158.238 185.024 159.102 185.024ZM173.329 189.232C173.329 189.456 173.302 189.712 173.249 190H166.753C166.785 190.789 166.998 191.371 167.393 191.744C167.787 192.117 168.278 192.304 168.865 192.304C169.387 192.304 169.819 192.176 170.161 191.92C170.513 191.664 170.737 191.317 170.833 190.88H173.217C173.099 191.499 172.849 192.053 172.465 192.544C172.081 193.035 171.585 193.419 170.977 193.696C170.379 193.973 169.713 194.112 168.977 194.112C168.113 194.112 167.345 193.931 166.673 193.568C166.001 193.195 165.478 192.667 165.105 191.984C164.731 191.301 164.545 190.496 164.545 189.568C164.545 188.64 164.731 187.835 165.105 187.152C165.478 186.459 166.001 185.931 166.673 185.568C167.345 185.205 168.113 185.024 168.977 185.024C169.851 185.024 170.614 185.205 171.265 185.568C171.926 185.931 172.433 186.432 172.785 187.072C173.147 187.701 173.329 188.421 173.329 189.232ZM171.057 189.008C171.089 188.283 170.897 187.733 170.481 187.36C170.075 186.987 169.574 186.8 168.977 186.8C168.369 186.8 167.857 186.987 167.441 187.36C167.025 187.733 166.795 188.283 166.753 189.008H171.057ZM185.295 191.728H180.767L179.967 194H177.583L181.743 182.832H184.319L188.463 194H186.079L185.295 191.728ZM184.687 190.016L183.023 185.248L181.359 190.016H184.687ZM191.936 186.832C192.267 186.267 192.704 185.824 193.248 185.504C193.792 185.173 194.4 185.008 195.072 185.008V187.424H194.416C192.763 187.424 191.936 188.192 191.936 189.728V194H189.68V185.136H191.936V186.832ZM204.657 189.232C204.657 189.456 204.63 189.712 204.577 190H198.081C198.113 190.789 198.326 191.371 198.721 191.744C199.116 192.117 199.606 192.304 200.193 192.304C200.716 192.304 201.148 192.176 201.489 191.92C201.841 191.664 202.065 191.317 202.161 190.88H204.545C204.428 191.499 204.177 192.053 203.793 192.544C203.409 193.035 202.913 193.419 202.305 193.696C201.708 193.973 201.041 194.112 200.305 194.112C199.441 194.112 198.673 193.931 198.001 193.568C197.329 193.195 196.806 192.667 196.433 191.984C196.06 191.301 195.873 190.496 195.873 189.568C195.873 188.64 196.06 187.835 196.433 187.152C196.806 186.459 197.329 185.931 198.001 185.568C198.673 185.205 199.441 185.024 200.305 185.024C201.18 185.024 201.942 185.205 202.593 185.568C203.254 185.931 203.761 186.432 204.113 187.072C204.476 187.701 204.657 188.421 204.657 189.232ZM202.385 189.008C202.417 188.283 202.225 187.733 201.809 187.36C201.404 186.987 200.902 186.8 200.305 186.8C199.697 186.8 199.185 186.987 198.769 187.36C198.353 187.733 198.124 188.283 198.081 189.008H202.385ZM209.73 185.024C210.477 185.024 211.117 185.2 211.65 185.552C212.184 185.904 212.562 186.379 212.786 186.976V185.136H215.026V194H212.786V192.144C212.562 192.741 212.184 193.221 211.65 193.584C211.117 193.936 210.477 194.112 209.73 194.112C208.984 194.112 208.312 193.931 207.714 193.568C207.117 193.205 206.648 192.683 206.306 192C205.976 191.307 205.81 190.496 205.81 189.568C205.81 188.64 205.976 187.835 206.306 187.152C206.648 186.459 207.117 185.931 207.714 185.568C208.312 185.205 208.984 185.024 209.73 185.024ZM210.434 186.992C209.73 186.992 209.165 187.221 208.738 187.68C208.312 188.139 208.098 188.768 208.098 189.568C208.098 190.368 208.312 190.997 208.738 191.456C209.165 191.904 209.73 192.128 210.434 192.128C211.117 192.128 211.677 191.899 212.114 191.44C212.562 190.971 212.786 190.347 212.786 189.568C212.786 188.779 212.562 188.155 212.114 187.696C211.677 187.227 211.117 186.992 210.434 186.992Z"/><mask id="mask0" width="201" height="151" x="63" y="20" mask-type="alpha" maskUnits="userSpaceOnUse"><path fill="#fff" stroke="#EDEDED" stroke-width="2" d="M75.2473 65.2147L71.047 129.002C69.754 148.639 84.6248 165.606 104.262 166.899C105.879 167.006 107.502 167.002 109.119 166.887L227.229 158.529C246.859 157.14 261.647 140.1 260.258 120.469C260.116 118.465 259.804 116.475 259.327 114.523L248.229 69.1242C244.635 54.4193 232.141 43.5906 217.075 42.1209L114.263 32.0911C94.6765 30.1804 77.2494 44.5096 75.3386 64.0962C75.3023 64.4685 75.2718 64.8414 75.2473 65.2147Z"/></mask><g mask="url(#mask0)"><g opacity=".15"><path stroke="#B21FF1" stroke-width="2" d="M84.5 27.5001V180"/><path stroke="#B21FF1" stroke-width="2" d="M100.5 27.5001V180"/><path stroke="#B21FF1" stroke-width="2" d="M116.5 27.5001V180"/><path stroke="#B21FF1" stroke-width="2" d="M132.5 27.5001V180"/><path stroke="#B21FF1" stroke-width="2" d="M148.5 27.5001V180"/><path stroke="#B21FF1" stroke-width="2" d="M164.5 27.5001V180"/><path stroke="#B21FF1" stroke-width="2" d="M180.5 27.5001V180"/><path stroke="#B21FF1" stroke-width="2" d="M196.5 27.5001V180"/><path stroke="#B21FF1" stroke-width="2" d="M212.5 27.5001V180"/><path stroke="#B21FF1" stroke-width="2" d="M228.5 27.5001V180"/><path stroke="#B21FF1" stroke-width="2" d="M244.5 27.5001V180"/><path stroke="#B21FF1" stroke-width="2" d="M260.5 27.5001V180"/><path stroke="#B21FF1" stroke-width="2" d="M68.5 27.5001V180"/><path stroke="#B21FF1" stroke-width="2" d="M53 155.75L292 155.75"/><path stroke="#B21FF1" stroke-width="2" d="M53 139.75L292 139.75"/><path stroke="#B21FF1" stroke-width="2" d="M53 123.75L292 123.75"/><path stroke="#B21FF1" stroke-width="2" d="M53 107.75L292 107.75"/><path stroke="#B21FF1" stroke-width="2" d="M53 91.75L292 91.75"/><path stroke="#B21FF1" stroke-width="2" d="M53 75.75L292 75.75"/><path stroke="#B21FF1" stroke-width="2" d="M53 59.75L292 59.75"/><path stroke="#B21FF1" stroke-width="2" d="M53 43.75L292 43.75"/><path stroke="#B21FF1" stroke-width="2" d="M53 27.75L292 27.75"/></g></g><path stroke="#B21FF1" stroke-width="3" d="M75.7462 65.2475L71.5459 129.035C70.271 148.396 84.9332 165.125 104.295 166.4C105.889 166.505 107.489 166.501 109.083 166.389L227.193 158.03C246.548 156.66 261.128 139.86 259.759 120.505C259.619 118.528 259.312 116.567 258.841 114.642L247.744 69.2429C244.199 54.7444 231.881 44.0677 217.027 42.6185L114.215 32.5888C94.9028 30.7048 77.7202 44.8329 75.8363 64.1448C75.8004 64.5119 75.7704 64.8795 75.7462 65.2475Z"/><path fill="#737373" d="M145.136 2.948C146.07 2.948 146.914 3.16733 147.67 3.606C148.436 4.03533 149.038 4.63733 149.476 5.412C149.915 6.17733 150.134 7.04533 150.134 8.016C150.134 8.98667 149.91 9.85933 149.462 10.634C149.024 11.4087 148.422 12.0153 147.656 12.454C146.9 12.8833 146.06 13.098 145.136 13.098C144.212 13.098 143.368 12.8833 142.602 12.454C141.846 12.0153 141.244 11.4087 140.796 10.634C140.358 9.85933 140.138 8.98667 140.138 8.016C140.138 7.04533 140.358 6.17733 140.796 5.412C141.244 4.63733 141.846 4.03533 142.602 3.606C143.368 3.16733 144.212 2.948 145.136 2.948ZM145.136 5.174C144.352 5.174 143.727 5.43067 143.26 5.944C142.803 6.448 142.574 7.13867 142.574 8.016C142.574 8.884 142.803 9.57467 143.26 10.088C143.727 10.6013 144.352 10.858 145.136 10.858C145.911 10.858 146.532 10.6013 146.998 10.088C147.465 9.57467 147.698 8.884 147.698 8.016C147.698 7.148 147.465 6.45733 146.998 5.944C146.541 5.43067 145.92 5.174 145.136 5.174ZM159.091 3.102V5.006H156.403V13H153.995V5.006H151.335V3.102H159.091ZM169.154 3.102V13H166.746V8.87H162.994V13H160.6V3.102H162.994V6.938H166.746V3.102H169.154ZM173.694 5.006V7.078H177.04V8.884H173.694V11.082H177.46V13H171.3V3.102H177.46V5.006H173.694ZM184.401 13L182.259 9.262H181.713V13H179.319V3.102H183.407C184.191 3.102 184.854 3.23733 185.395 3.508C185.936 3.77867 186.342 4.152 186.613 4.628C186.884 5.09467 187.019 5.63133 187.019 6.238C187.019 6.95667 186.818 7.568 186.417 8.072C186.025 8.576 185.451 8.92133 184.695 9.108L187.047 13H184.401ZM181.713 7.624H183.197C183.673 7.624 184.023 7.52133 184.247 7.316C184.471 7.10133 184.583 6.78867 184.583 6.378C184.583 5.986 184.466 5.678 184.233 5.454C184.009 5.23 183.664 5.118 183.197 5.118H181.713V7.624Z"/></svg>