<svg width="343" height="200" viewBox="0 0 343 200" fill="none" xmlns="http://www.w3.org/2000/svg">
<rect x="57.5" y="33.5" width="228" height="133" stroke="#1E6BFF" stroke-width="3"/>
<rect opacity="0.03" x="57.5" y="33.5" width="228" height="133" fill="#1E6BFF" stroke="#1E6BFF" stroke-width="3"/>
<path opacity="0.15" d="M56 176V188H287V176" stroke="#1E6BFF" stroke-width="2"/>
<path opacity="0.15" d="M48 33L36 33L36 167L48 167" stroke="#1E6BFF" stroke-width="2"/>
<rect x="152" y="176" width="39" height="24" fill="#FBFCFF"/>
<path d="M171.085 192.272H174.877V194H168.829V182.704H171.085V192.272Z" fill="#1E6BFF"/>
<rect x="47.5" y="80.5" width="39" height="24" transform="rotate(90 47.5 80.5)" fill="#FBFCFF"/>
<path d="M43.6603 94.704L40.8923 106H38.1083L35.9963 97.808L33.8683 106H31.1003L28.3323 94.704H30.7803L32.5083 103.456L34.7483 94.704H37.2283L39.4843 103.456L41.2123 94.704H43.6603Z" fill="#1E6BFF"/>
<path d="M135.069 13L132.927 9.262H132.381V13H129.987V3.102H134.075C134.859 3.102 135.522 3.23733 136.063 3.508C136.604 3.77867 137.01 4.152 137.281 4.628C137.552 5.09467 137.687 5.63133 137.687 6.238C137.687 6.95667 137.486 7.568 137.085 8.072C136.693 8.576 136.119 8.92133 135.363 9.108L137.715 13H135.069ZM132.381 7.624H133.865C134.341 7.624 134.691 7.52133 134.915 7.316C135.139 7.10133 135.251 6.78867 135.251 6.378C135.251 5.986 135.134 5.678 134.901 5.454C134.677 5.23 134.332 5.118 133.865 5.118H132.381V7.624ZM141.782 5.006V7.078H145.128V8.884H141.782V11.082H145.548V13H139.388V3.102H145.548V5.006H141.782ZM151.929 3.004C153.189 3.004 154.23 3.33533 155.051 3.998C155.882 4.66067 156.418 5.55667 156.661 6.686H154.127C153.94 6.22867 153.651 5.86933 153.259 5.608C152.876 5.34667 152.419 5.216 151.887 5.216C151.187 5.216 150.622 5.47267 150.193 5.986C149.764 6.49933 149.549 7.18533 149.549 8.044C149.549 8.90267 149.764 9.58867 150.193 10.102C150.622 10.606 151.187 10.858 151.887 10.858C152.419 10.858 152.876 10.7273 153.259 10.466C153.651 10.2047 153.94 9.85 154.127 9.402H156.661C156.418 10.522 155.882 11.418 155.051 12.09C154.23 12.7527 153.189 13.084 151.929 13.084C150.968 13.084 150.123 12.874 149.395 12.454C148.667 12.0247 148.102 11.4273 147.701 10.662C147.309 9.89667 147.113 9.024 147.113 8.044C147.113 7.064 147.309 6.19133 147.701 5.426C148.102 4.66067 148.667 4.068 149.395 3.648C150.123 3.21867 150.968 3.004 151.929 3.004ZM165.615 3.102V5.006H162.927V13H160.519V5.006H157.859V3.102H165.615ZM173.256 11.194H169.546L168.93 13H166.41L170.036 3.172H172.794L176.42 13H173.872L173.256 11.194ZM172.64 9.374L171.408 5.734L170.162 9.374H172.64ZM186.642 13H184.248L180.244 6.924V13H177.85V3.102H180.244L184.248 9.234V3.102H186.642V13ZM193.43 3.004C194.671 3.004 195.693 3.30733 196.496 3.914C197.298 4.52067 197.798 5.342 197.994 6.378H195.46C195.292 6.02333 195.035 5.74333 194.69 5.538C194.344 5.32333 193.929 5.216 193.444 5.216C192.688 5.216 192.081 5.47267 191.624 5.986C191.166 6.49 190.938 7.176 190.938 8.044C190.938 8.98667 191.176 9.71 191.652 10.214C192.137 10.718 192.823 10.97 193.71 10.97C194.279 10.97 194.778 10.816 195.208 10.508C195.637 10.1907 195.94 9.74267 196.118 9.164H193.094V7.442H198.12V9.808C197.933 10.3867 197.634 10.9233 197.224 11.418C196.813 11.9127 196.286 12.314 195.642 12.622C195.007 12.93 194.279 13.084 193.458 13.084C192.459 13.084 191.586 12.874 190.84 12.454C190.093 12.0247 189.514 11.4273 189.104 10.662C188.702 9.89667 188.502 9.024 188.502 8.044C188.502 7.064 188.702 6.19133 189.104 5.426C189.514 4.66067 190.088 4.068 190.826 3.648C191.572 3.21867 192.44 3.004 193.43 3.004ZM202.354 11.166H205.546V13H199.96V3.102H202.354V11.166ZM209.539 5.006V7.078H212.885V8.884H209.539V11.082H213.305V13H207.145V3.102H213.305V5.006H209.539Z" fill="#737373"/>
</svg>