<svg width="265" height="197" viewBox="0 0 265 197" fill="none" xmlns="http://www.w3.org/2000/svg">
<rect x="34.5" y="30.5" width="228" height="133" stroke="#2972FF" stroke-width="3"/>
<rect opacity="0.03" x="34.5" y="30.5" width="228" height="133" fill="#2972FF" stroke="#2972FF" stroke-width="3"/>
<path opacity="0.15" d="M33 173V185H264V173" stroke="#2972FF" stroke-width="2"/>
<path opacity="0.15" d="M25 30L13 30L13 164L25 164" stroke="#2972FF" stroke-width="2"/>
<rect x="129" y="173" width="39" height="24" fill="#010205"/>
<path d="M148.085 189.272H151.877V191H145.829V179.704H148.085V189.272Z" fill="#2972FF"/>
<rect x="24.5" y="77.5" width="39" height="24" transform="rotate(90 24.5 77.5)" fill="#010205"/>
<path d="M20.6603 91.704L17.8923 103H15.1083L12.9963 94.808L10.8683 103H8.10031L5.33231 91.704H7.78031L9.50831 100.456L11.7483 91.704H14.2283L16.4843 100.456L18.2123 91.704H20.6603Z" fill="#2972FF"/>
<path d="M112.069 10L109.927 6.262H109.381V10H106.987V0.102H111.075C111.859 0.102 112.522 0.237333 113.063 0.508C113.604 0.778666 114.01 1.152 114.281 1.628C114.552 2.09467 114.687 2.63133 114.687 3.238C114.687 3.95667 114.486 4.568 114.085 5.072C113.693 5.576 113.119 5.92133 112.363 6.108L114.715 10H112.069ZM109.381 4.624H110.865C111.341 4.624 111.691 4.52133 111.915 4.316C112.139 4.10133 112.251 3.78867 112.251 3.378C112.251 2.986 112.134 2.678 111.901 2.454C111.677 2.23 111.332 2.118 110.865 2.118H109.381V4.624ZM118.782 2.006V4.078H122.128V5.884H118.782V8.082H122.548V10H116.388V0.102H122.548V2.006H118.782ZM128.929 0.00399935C130.189 0.00399935 131.23 0.335333 132.051 0.998C132.882 1.66067 133.418 2.55667 133.661 3.686H131.127C130.94 3.22867 130.651 2.86933 130.259 2.608C129.876 2.34667 129.419 2.216 128.887 2.216C128.187 2.216 127.622 2.47267 127.193 2.986C126.764 3.49933 126.549 4.18533 126.549 5.044C126.549 5.90267 126.764 6.58867 127.193 7.102C127.622 7.606 128.187 7.858 128.887 7.858C129.419 7.858 129.876 7.72733 130.259 7.466C130.651 7.20467 130.94 6.85 131.127 6.402H133.661C133.418 7.522 132.882 8.418 132.051 9.09C131.23 9.75267 130.189 10.084 128.929 10.084C127.968 10.084 127.123 9.874 126.395 9.454C125.667 9.02467 125.102 8.42733 124.701 7.662C124.309 6.89667 124.113 6.024 124.113 5.044C124.113 4.064 124.309 3.19133 124.701 2.426C125.102 1.66067 125.667 1.068 126.395 0.647999C127.123 0.218666 127.968 0.00399935 128.929 0.00399935ZM142.615 0.102V2.006H139.927V10H137.519V2.006H134.859V0.102H142.615ZM150.256 8.194H146.546L145.93 10H143.41L147.036 0.172H149.794L153.42 10H150.872L150.256 8.194ZM149.64 6.374L148.408 2.734L147.162 6.374H149.64ZM163.642 10H161.248L157.244 3.924V10H154.85V0.102H157.244L161.248 6.234V0.102H163.642V10ZM170.43 0.00399935C171.671 0.00399935 172.693 0.307333 173.496 0.913999C174.298 1.52067 174.798 2.342 174.994 3.378H172.46C172.292 3.02333 172.035 2.74333 171.69 2.538C171.344 2.32333 170.929 2.216 170.444 2.216C169.688 2.216 169.081 2.47267 168.624 2.986C168.166 3.49 167.938 4.176 167.938 5.044C167.938 5.98667 168.176 6.71 168.652 7.214C169.137 7.718 169.823 7.97 170.71 7.97C171.279 7.97 171.778 7.816 172.208 7.508C172.637 7.19067 172.94 6.74267 173.118 6.164H170.094V4.442H175.12V6.808C174.933 7.38667 174.634 7.92333 174.224 8.418C173.813 8.91267 173.286 9.314 172.642 9.622C172.007 9.93 171.279 10.084 170.458 10.084C169.459 10.084 168.586 9.874 167.84 9.454C167.093 9.02467 166.514 8.42733 166.104 7.662C165.702 6.89667 165.502 6.024 165.502 5.044C165.502 4.064 165.702 3.19133 166.104 2.426C166.514 1.66067 167.088 1.068 167.826 0.647999C168.572 0.218666 169.44 0.00399935 170.43 0.00399935ZM179.354 8.166H182.546V10H176.96V0.102H179.354V8.166ZM186.539 2.006V4.078H189.885V5.884H186.539V8.082H190.305V10H184.145V0.102H190.305V2.006H186.539Z" fill="#949494"/>
</svg>
