<svg width="269" height="198" viewBox="0 0 269 198" fill="none" xmlns="http://www.w3.org/2000/svg">
<path opacity="0.15" d="M33 174V186H268V174" stroke="#FF7502" stroke-width="2"/>
<path opacity="0.15" d="M24 31L12 31L12 165L24 165" stroke="#FF7502" stroke-width="2"/>
<rect x="131" y="174" width="39" height="24" fill="#050200"/>
<path d="M150.085 190.272H153.877V192H147.829V180.704H150.085V190.272Z" fill="#FF7502"/>
<rect x="24" y="78.5" width="39" height="24" transform="rotate(90 24 78.5)" fill="#050200"/>
<path d="M19.6603 92.704L16.8923 104H14.1083L11.9963 95.808L9.86831 104H7.10031L4.33231 92.704H6.78031L8.50831 101.456L10.7483 92.704H13.2283L15.4843 101.456L17.2123 92.704H19.6603Z" fill="#FF7502"/>
<path d="M266.5 98C266.5 116.013 253.817 132.608 232.69 144.784C211.602 156.936 182.37 164.5 150 164.5C117.63 164.5 88.398 156.936 67.3103 144.784C46.1826 132.608 33.5 116.013 33.5 98C33.5 79.9865 46.1826 63.3917 67.3103 51.2164C88.398 39.0642 117.63 31.5 150 31.5C182.37 31.5 211.602 39.0642 232.69 51.2164C253.817 63.3917 266.5 79.9865 266.5 98Z" stroke="#FF7502" stroke-width="3"/>
<path opacity="0.03" d="M266.5 98C266.5 116.013 253.817 132.608 232.69 144.784C211.602 156.936 182.37 164.5 150 164.5C117.63 164.5 88.398 156.936 67.3103 144.784C46.1826 132.608 33.5 116.013 33.5 98C33.5 79.9865 46.1826 63.3917 67.3103 51.2164C88.398 39.0642 117.63 31.5 150 31.5C182.37 31.5 211.602 39.0642 232.69 51.2164C253.817 63.3917 266.5 79.9865 266.5 98Z" fill="#FF7502" stroke="#FF7502" stroke-width="3"/>
<path d="M136.215 0.947999C137.148 0.947999 137.993 1.16733 138.749 1.606C139.514 2.03533 140.116 2.63733 140.555 3.412C140.993 4.17733 141.213 5.04533 141.213 6.016C141.213 6.98667 140.989 7.85933 140.541 8.634C140.102 9.40867 139.5 10.0153 138.735 10.454C137.979 10.8833 137.139 11.098 136.215 11.098C135.291 11.098 134.446 10.8833 133.681 10.454C132.925 10.0153 132.323 9.40867 131.875 8.634C131.436 7.85933 131.217 6.98667 131.217 6.016C131.217 5.04533 131.436 4.17733 131.875 3.412C132.323 2.63733 132.925 2.03533 133.681 1.606C134.446 1.16733 135.291 0.947999 136.215 0.947999ZM136.215 3.174C135.431 3.174 134.805 3.43067 134.339 3.944C133.881 4.448 133.653 5.13867 133.653 6.016C133.653 6.884 133.881 7.57467 134.339 8.088C134.805 8.60133 135.431 8.858 136.215 8.858C136.989 8.858 137.61 8.60133 138.077 8.088C138.543 7.57467 138.777 6.884 138.777 6.016C138.777 5.148 138.543 4.45733 138.077 3.944C137.619 3.43067 136.999 3.174 136.215 3.174ZM144.905 1.102L147.327 8.55L149.749 1.102H152.311L148.867 11H145.773L142.343 1.102H144.905ZM159.861 9.194H156.151L155.535 11H153.015L156.641 1.172H159.399L163.025 11H160.477L159.861 9.194ZM159.245 7.374L158.013 3.734L156.767 7.374H159.245ZM166.85 9.166H170.042V11H164.456V1.102H166.85V9.166Z" fill="#949494"/>
</svg>
