<svg xmlns="http://www.w3.org/2000/svg" width="136" height="197" fill="none" viewBox="0 0 136 197"><path stroke="#00C264" stroke-width="2" d="M2 173V185H135V173" opacity=".15"/><rect width="39" height="24" x="49" y="173" fill="#000402"/><path fill="#00C264" d="M73.6475 185.336C73.6475 186.456 73.4128 187.443 72.9435 188.296C72.4742 189.149 71.7915 189.816 70.8955 190.296C70.0102 190.765 68.9542 191 67.7275 191H63.7115V179.704H67.7275C68.9542 179.704 70.0102 179.939 70.8955 180.408C71.7915 180.867 72.4742 181.523 72.9435 182.376C73.4128 183.219 73.6475 184.205 73.6475 185.336ZM67.5355 188.984C68.7515 188.984 69.6902 188.664 70.3515 188.024C71.0235 187.384 71.3595 186.488 71.3595 185.336C71.3595 184.173 71.0235 183.272 70.3515 182.632C69.6902 181.992 68.7515 181.672 67.5355 181.672H65.9675V188.984H67.5355Z"/><rect width="133" height="133" x="1.5" y="30.5" fill="#00C264" stroke="#00C264" stroke-width="3" opacity=".03" rx="66.5"/><rect width="133" height="133" x="1.5" y="30.5" stroke="#00C264" stroke-width="3" rx="66.5"/><path fill="#949494" d="M48.4261 0.00399935C49.6861 0.00399935 50.7268 0.335333 51.5481 0.998C52.3788 1.66067 52.9155 2.55667 53.1581 3.686H50.6241C50.4375 3.22867 50.1481 2.86933 49.7561 2.608C49.3735 2.34667 48.9161 2.216 48.3841 2.216C47.6841 2.216 47.1195 2.47267 46.6901 2.986C46.2608 3.49933 46.0461 4.18533 46.0461 5.044C46.0461 5.90267 46.2608 6.58867 46.6901 7.102C47.1195 7.606 47.6841 7.858 48.3841 7.858C48.9161 7.858 49.3735 7.72733 49.7561 7.466C50.1481 7.20467 50.4375 6.85 50.6241 6.402H53.1581C52.9155 7.522 52.3788 8.418 51.5481 9.09C50.7268 9.75267 49.6861 10.084 48.4261 10.084C47.4648 10.084 46.6201 9.874 45.8921 9.454C45.1641 9.02467 44.5995 8.42733 44.1981 7.662C43.8061 6.89667 43.6101 6.024 43.6101 5.044C43.6101 4.064 43.8061 3.19133 44.1981 2.426C44.5995 1.66067 45.1641 1.068 45.8921 0.647999C46.6201 0.218666 47.4648 0.00399935 48.4261 0.00399935ZM57.3938 0.102V10H54.9998V0.102H57.3938ZM64.6287 10L62.4867 6.262H61.9407V10H59.5467V0.102H63.6347C64.4187 0.102 65.0814 0.237333 65.6227 0.508C66.164 0.778666 66.57 1.152 66.8407 1.628C67.1114 2.09467 67.2467 2.63133 67.2467 3.238C67.2467 3.95667 67.046 4.568 66.6447 5.072C66.2527 5.576 65.6787 5.92133 64.9227 6.108L67.2747 10H64.6287ZM61.9407 4.624H63.4247C63.9007 4.624 64.2507 4.52133 64.4747 4.316C64.6987 4.10133 64.8107 3.78867 64.8107 3.378C64.8107 2.986 64.694 2.678 64.4607 2.454C64.2367 2.23 63.8914 2.118 63.4247 2.118H61.9407V4.624ZM73.4691 0.00399935C74.7291 0.00399935 75.7698 0.335333 76.5911 0.998C77.4218 1.66067 77.9584 2.55667 78.2011 3.686H75.6671C75.4804 3.22867 75.1911 2.86933 74.7991 2.608C74.4164 2.34667 73.9591 2.216 73.4271 2.216C72.7271 2.216 72.1624 2.47267 71.7331 2.986C71.3038 3.49933 71.0891 4.18533 71.0891 5.044C71.0891 5.90267 71.3038 6.58867 71.7331 7.102C72.1624 7.606 72.7271 7.858 73.4271 7.858C73.9591 7.858 74.4164 7.72733 74.7991 7.466C75.1911 7.20467 75.4804 6.85 75.6671 6.402H78.2011C77.9584 7.522 77.4218 8.418 76.5911 9.09C75.7698 9.75267 74.7291 10.084 73.4691 10.084C72.5078 10.084 71.6631 9.874 70.9351 9.454C70.2071 9.02467 69.6424 8.42733 69.2411 7.662C68.8491 6.89667 68.6531 6.024 68.6531 5.044C68.6531 4.064 68.8491 3.19133 69.2411 2.426C69.6424 1.66067 70.2071 1.068 70.9351 0.647999C71.6631 0.218666 72.5078 0.00399935 73.4691 0.00399935ZM82.4368 8.166H85.6288V10H80.0428V0.102H82.4368V8.166ZM89.6223 2.006V4.078H92.9683V5.884H89.6223V8.082H93.3883V10H87.2283V0.102H93.3883V2.006H89.6223Z"/></svg>