<svg width="14" height="14" viewBox="0 0 14 14" fill="none" xmlns="http://www.w3.org/2000/svg">
<path d="M1.64196 10.7949L5.9193 13.0625C6.57555 13.4082 7.17907 13.4082 7.83532 13.0625L12.1127 10.7949C12.7631 10.4492 13.0326 10.0449 13.0326 9.26562V4.16211C13.0326 3.48828 12.7748 3.03711 12.1478 2.70898L8.11657 0.558594C7.34313 0.142578 6.41149 0.142578 5.63805 0.558594L1.6068 2.70898C0.979849 3.03711 0.722037 3.48828 0.722037 4.16211V9.26562C0.722037 10.0449 0.985709 10.4492 1.64196 10.7949ZM6.19469 2.58594H7.55993V2.16992L10.5189 3.75195L7.55993 5.32812V4.91211H6.19469V5.32812L3.22985 3.75195L6.19469 2.16992V2.58594ZM6.19469 4.40234H7.55993V3.0957H6.19469V4.40234ZM5.48571 8.26367L6.04235 7.98242V11.2695L2.92516 9.57617L3.41735 9.32422L2.78454 8.11133L2.31579 8.35156V5.16992L5.36266 6.79297L4.85876 7.05078L5.48571 8.26367ZM10.3373 9.32422L10.8295 9.57617L7.71227 11.2695V7.98242L8.26891 8.26367L8.89001 7.05078L8.3861 6.79297L11.4388 5.16992V8.35156L10.9642 8.11133L10.3373 9.32422ZM3.86852 9.10156L5.03454 8.49805L4.40758 7.28516L3.24157 7.87695L3.86852 9.10156ZM8.72008 8.49805L9.8861 9.10156L10.5131 7.87695L9.34704 7.28516L8.72008 8.49805Z" fill="#000"/>
</svg>
