<svg width="32" height="32" viewBox="0 0 32 32" fill="none" xmlns="http://www.w3.org/2000/svg">
<rect opacity="0.06" width="32" height="32" rx="10" fill="#000"/>
<path d="M9.01562 21.7266L14.7188 24.75C15.5938 25.2109 16.3984 25.2109 17.2734 24.75L22.9766 21.7266C23.8438 21.2656 24.2031 20.7266 24.2031 19.6875V12.8828C24.2031 11.9844 23.8594 11.3828 23.0234 10.9453L17.6484 8.07812C16.6172 7.52344 15.375 7.52344 14.3438 8.07812L8.96875 10.9453C8.13281 11.3828 7.78906 11.9844 7.78906 12.8828V19.6875C7.78906 20.7266 8.14062 21.2656 9.01562 21.7266ZM15.0859 10.7812H16.9062V10.2266L20.8516 12.3359L16.9062 14.4375V13.8828H15.0859V14.4375L11.1328 12.3359L15.0859 10.2266V10.7812ZM15.0859 13.2031H16.9062V11.4609H15.0859V13.2031ZM14.1406 18.3516L14.8828 17.9766V22.3594L10.7266 20.1016L11.3828 19.7656L10.5391 18.1484L9.91406 18.4688V14.2266L13.9766 16.3906L13.3047 16.7344L14.1406 18.3516ZM20.6094 19.7656L21.2656 20.1016L17.1094 22.3594V17.9766L17.8516 18.3516L18.6797 16.7344L18.0078 16.3906L22.0781 14.2266V18.4688L21.4453 18.1484L20.6094 19.7656ZM11.9844 19.4688L13.5391 18.6641L12.7031 17.0469L11.1484 17.8359L11.9844 19.4688ZM18.4531 18.6641L20.0078 19.4688L20.8438 17.8359L19.2891 17.0469L18.4531 18.6641Z" fill="#000"/>
</svg>
