<svg xmlns="http://www.w3.org/2000/svg" width="15" height="17" fill="none" viewBox="0 0 15 17"><path fill="#fff" d="M4.32812 16.4336H10.665C11.957 16.4336 12.7227 15.7773 12.7842 14.4717L13.2148 4.94238H13.7412C14.2881 4.94238 14.6846 4.57324 14.6846 4.02637C14.6846 3.5 14.2881 3.12402 13.7412 3.12402H10.9863V2.17383C10.9863 0.929688 10.2275 0.259766 8.79883 0.259766H6.1875C4.76562 0.259766 4.00684 0.929688 4.00684 2.17383V3.12402H1.25195C0.705078 3.12402 0.308594 3.5 0.308594 4.02637C0.308594 4.57324 0.705078 4.94238 1.25195 4.94238H1.77832L2.20898 14.4717C2.27051 15.7773 3.0293 16.4336 4.32812 16.4336ZM5.90039 2.21484C5.90039 1.98926 6.05762 1.85938 6.33105 1.85938H8.65527C8.92871 1.85938 9.08594 1.98926 9.08594 2.21484V3.12402H5.90039V2.21484ZM4.6084 14.5742C4.27344 14.5742 4.08203 14.3486 4.06836 13.9385L3.6582 4.94238H11.3281L10.9248 13.9385C10.9111 14.3486 10.7197 14.5742 10.3779 14.5742H4.6084ZM5.51758 13.6992C5.90723 13.6992 6.16016 13.4463 6.13965 13.0771L5.94141 6.43945C5.93457 6.07715 5.6748 5.83105 5.29883 5.83105C4.91602 5.83105 4.67676 6.07715 4.69043 6.45312L4.89551 13.0908C4.90918 13.4531 5.15527 13.6992 5.51758 13.6992ZM7.49316 13.6992C7.86914 13.6992 8.11523 13.46 8.11523 13.0977V6.43945C8.11523 6.07031 7.86914 5.83105 7.49316 5.83105C7.12402 5.83105 6.87793 6.07031 6.87793 6.43945V13.0977C6.87793 13.46 7.12402 13.6992 7.49316 13.6992ZM9.47559 13.6992C9.83105 13.6992 10.084 13.4531 10.0977 13.0908L10.3027 6.45312C10.3164 6.07715 10.0703 5.83105 9.69434 5.83105C9.31836 5.83105 9.05859 6.07715 9.05176 6.43945L8.84668 13.0771C8.83301 13.4463 9.08594 13.6992 9.47559 13.6992Z"/></svg>