<svg xmlns="http://www.w3.org/2000/svg" width="32" height="32" fill="none" viewBox="0 0 32 32"><rect width="30.507" height="32" x=".627" fill="#B21FF1" opacity=".06" rx="10"/><path fill="#B21FF1" d="M16.5078 19.3047C17.2578 19.3047 17.7656 18.9688 17.9531 18.3047C17.9609 18.2656 17.9766 18.1953 17.9844 18.1484C18.1406 17.4844 18.4609 17.1641 19.7969 16.375C21.2812 15.4844 21.9766 14.4922 21.9766 13.0312C21.9766 10.5625 19.9531 9.01562 16.9375 9.01562C14.7109 9.01562 13.0156 9.875 12.3281 11.1484C12.125 11.5234 12.0234 11.9219 12.0234 12.3203C12.0156 13.2031 12.6172 13.7969 13.5625 13.7969C14.25 13.7969 14.8359 13.4531 15.1172 12.8594C15.4375 12.0703 16 11.7266 16.7656 11.7266C17.6641 11.7266 18.3594 12.2969 18.3594 13.1016C18.3594 13.9844 17.9531 14.3984 16.625 15.1953C15.5703 15.8281 14.9297 16.5469 14.9297 17.6328V17.7891C14.9297 18.7031 15.5703 19.3047 16.5078 19.3047ZM16.5547 23.9297C17.6016 23.9297 18.4531 23.1406 18.4531 22.1328C18.4531 21.1328 17.6016 20.3438 16.5547 20.3438C15.5078 20.3438 14.6641 21.1328 14.6641 22.1328C14.6641 23.1406 15.5078 23.9297 16.5547 23.9297Z"/></svg>