<svg width="32" height="32" viewBox="0 0 32 32" fill="none" xmlns="http://www.w3.org/2000/svg">
<rect opacity="0.06" x="0.626953" width="30.5073" height="32" rx="10" fill="#1E6BFF"/>
<path d="M10.5703 24.0234H23.4375C25.3203 24.0234 26.3984 22.9453 26.3984 21.0703V11.6719C26.3984 9.79688 25.3203 8.71094 23.4375 8.71094H10.5703C8.6875 8.71094 7.60156 9.78906 7.60156 11.6719V21.0703C7.60156 22.9453 8.6875 24.0234 10.5703 24.0234ZM10.9297 21.4922C10.3984 21.4922 10.1328 21.2578 10.1328 20.6953V12.0469C10.1328 11.4766 10.3984 11.2422 10.9297 11.2422H23.0703C23.6016 11.2422 23.8672 11.4766 23.8672 12.0469V20.6953C23.8672 21.2578 23.6016 21.4922 23.0703 21.4922H10.9297Z" fill="#1E6BFF"/>
</svg>
