<svg width="19" height="22" viewBox="0 0 19 22" fill="none" xmlns="http://www.w3.org/2000/svg">
<path d="M16.1516 18.9038C16.1491 18.8812 16.1543 18.858 16.1672 18.8382C16.2926 18.6458 16.3633 18.4272 16.3732 18.203C16.3831 17.9788 16.3318 17.7556 16.2239 17.5544L16.2237 17.5541L15.0696 15.3857H3.93045L2.77635 17.554L16.1516 18.9038ZM16.1516 18.9038C16.0292 19.067 15.8685 19.2031 15.6809 19.3013C15.4684 19.4125 15.2287 19.4712 14.9846 19.4714L4.04636 19.4714C4.04624 19.4714 4.04612 19.4714 4.046 19.4714C3.8029 19.4701 3.56447 19.4109 3.35322 19.2997C3.14188 19.1884 2.96504 19.029 2.8388 18.8371C2.71259 18.6452 2.64096 18.427 2.63008 18.2029C2.61921 17.9789 2.66938 17.7556 2.77629 17.5541L16.1516 18.9038ZM12.6513 7.23213V2.52857H13.3141C13.3693 2.52857 13.4141 2.4838 13.4141 2.42857V1C13.4141 0.944772 13.3693 0.9 13.3141 0.9H5.6859C5.63067 0.9 5.5859 0.944772 5.5859 1V2.42857C5.5859 2.4838 5.63067 2.52857 5.6859 2.52857H6.34872V7.23213L1.23438 16.8172C0.993414 17.2681 0.879233 17.7696 0.903103 18.2741C0.926972 18.7785 1.08806 19.2684 1.3705 19.6974C1.65291 20.1263 2.04714 20.4798 2.51524 20.725C2.98331 20.9701 3.51009 21.0991 4.04567 21.1H4.04584H14.9542H14.9543C15.4899 21.0991 16.0167 20.9701 16.4848 20.725C16.9529 20.4798 17.3471 20.1263 17.6295 19.6974C17.9119 19.2684 18.073 18.7785 18.0969 18.2741C18.1208 17.7696 18.0066 17.2681 17.7656 16.8172L12.6513 7.23213ZM11.0218 7.798L14.2001 13.7571H4.79988L7.97818 7.798C7.97827 7.79784 7.97835 7.79768 7.97844 7.79752C8.04055 7.68382 8.07354 7.55765 8.07436 7.42921V7.42857V2.52857H10.9256L10.9256 7.42857L10.9256 7.42921C10.9265 7.55764 10.9594 7.68379 11.0215 7.79748C11.0216 7.79765 11.0217 7.79783 11.0218 7.798Z" fill="#00B25C" stroke="#00B25C" stroke-width="0.2" stroke-linecap="round" stroke-linejoin="round"/>
</svg>
