<svg width="17" height="18" viewBox="0 0 17 18" fill="none" xmlns="http://www.w3.org/2000/svg">
<path d="M7.06152 14.2002C8.40625 14.2002 9.67188 13.8135 10.7441 13.1455L14.3652 16.7666C14.6553 17.0566 15.0508 17.1973 15.4551 17.1973C16.3076 17.1973 16.9492 16.5381 16.9492 15.6855C16.9492 15.2988 16.8174 14.9121 16.5186 14.6221L12.9326 11.0273C13.6709 9.91113 14.0928 8.58398 14.0928 7.16016C14.0928 3.29297 10.9287 0.120117 7.06152 0.120117C3.19434 0.120117 0.0214844 3.28418 0.0214844 7.16016C0.0214844 11.0273 3.19434 14.2002 7.06152 14.2002ZM7.06152 12.0557C4.36328 12.0557 2.15723 9.84961 2.15723 7.16016C2.15723 4.4707 4.36328 2.26465 7.06152 2.26465C9.75098 2.26465 11.957 4.4707 11.957 7.16016C11.957 9.84961 9.75098 12.0557 7.06152 12.0557Z" fill="#717171"/>
</svg>
