<svg width="32" height="32" viewBox="0 0 32 32" fill="none" xmlns="http://www.w3.org/2000/svg">
<circle opacity="0.04" cx="16" cy="16" r="16" fill="#1E6BFF"/>
<path d="M16 25.9004C16.2051 25.9004 16.4102 25.8906 16.625 25.8711L17.1426 26.8477C17.2793 27.1699 17.6211 27.3359 17.9922 27.2773C18.334 27.2188 18.5879 26.9453 18.6367 26.5938L18.793 25.4902C19.1934 25.3828 19.584 25.2266 19.9648 25.0703L20.7852 25.8027C21.0391 26.0469 21.4004 26.0957 21.7422 25.9102C22.0449 25.7344 22.1719 25.3926 22.1035 25.0508L21.8691 23.957C22.2012 23.7227 22.5332 23.4492 22.8457 23.1562L23.8613 23.5859C24.1934 23.7227 24.5352 23.6348 24.7891 23.3418C25.0039 23.0879 25.0332 22.7266 24.8477 22.4141L24.2617 21.4668C24.4863 21.125 24.6914 20.7637 24.8672 20.3828L25.9902 20.4414C26.3418 20.4609 26.6641 20.2461 26.7715 19.9043C26.8887 19.582 26.7715 19.2109 26.498 19.0059L25.6289 18.3125C25.7266 17.9219 25.8145 17.502 25.8535 17.082L26.8984 16.7402C27.25 16.623 27.4648 16.3398 27.4648 15.9785C27.4648 15.627 27.25 15.334 26.8984 15.2266L25.8535 14.8848C25.8145 14.4648 25.7266 14.0547 25.6289 13.6445L26.498 12.9609C26.7715 12.7559 26.8887 12.3945 26.7715 12.0723C26.6641 11.7305 26.3418 11.5156 25.9902 11.5352L24.8672 11.584C24.6816 11.1934 24.4863 10.8418 24.2617 10.4902L24.8477 9.54297C25.0332 9.25977 25.0039 8.88867 24.7891 8.63477C24.5352 8.3418 24.1934 8.25391 23.8516 8.39062L22.8359 8.80078C22.5332 8.51758 22.2012 8.25391 21.8691 8L22.1035 6.92578C22.1719 6.56445 22.0352 6.23242 21.7227 6.05664C21.4004 5.88086 21.0293 5.91016 20.7852 6.16406L19.9648 6.89648C19.584 6.73047 19.1836 6.59375 18.793 6.47656L18.6367 5.38281C18.5879 5.03125 18.334 4.75781 17.9727 4.68945C17.6211 4.64062 17.2891 4.80664 17.1426 5.09961L16.625 6.0957C16.4102 6.07617 16.2051 6.07617 16 6.07617C15.7852 6.07617 15.5801 6.07617 15.3652 6.0957L14.8477 5.10938C14.7012 4.80664 14.3691 4.64062 13.998 4.69922C13.6562 4.75781 13.4023 5.03125 13.3535 5.38281L13.1973 6.47656C12.7969 6.59375 12.3965 6.73047 12.0156 6.89648L11.2148 6.17383C10.9512 5.91992 10.5898 5.88086 10.2578 6.05664C9.95508 6.23242 9.81836 6.56445 9.87695 6.92578L10.1211 8C9.7793 8.25391 9.45703 8.51758 9.14453 8.80078L8.12891 8.39062C7.78711 8.25391 7.45508 8.3418 7.20117 8.63477C6.98633 8.88867 6.95703 9.25977 7.14258 9.54297L7.72852 10.4902C7.50391 10.8418 7.29883 11.1934 7.11328 11.584L6 11.5352C5.64844 11.5156 5.32617 11.7305 5.21875 12.0723C5.10156 12.3945 5.20898 12.7559 5.48242 12.9609L6.36133 13.6543C6.26367 14.0547 6.17578 14.4648 6.13672 14.8848L5.0918 15.2266C4.73047 15.334 4.52539 15.627 4.52539 15.9785C4.52539 16.3398 4.73047 16.623 5.0918 16.7402L6.13672 17.082C6.17578 17.502 6.26367 17.9219 6.36133 18.3125L5.49219 19.0059C5.20898 19.2109 5.10156 19.5723 5.21875 19.9043C5.32617 20.2461 5.64844 20.4609 6.00977 20.4414L7.11328 20.3828C7.29883 20.7637 7.50391 21.125 7.72852 21.4668L7.13281 22.4238C6.94727 22.7266 6.98633 23.0879 7.20117 23.3418C7.45508 23.6348 7.78711 23.7227 8.12891 23.5859L9.14453 23.1562C9.45703 23.4492 9.7793 23.7227 10.1211 23.957L9.87695 25.0508C9.81836 25.3926 9.94531 25.7344 10.2578 25.9199C10.5801 26.0957 10.9512 26.0469 11.2051 25.8125L12.0156 25.0703C12.3965 25.2266 12.7969 25.3828 13.1973 25.4902L13.3535 26.5938C13.4023 26.9453 13.6562 27.2188 14.0078 27.2871C14.3691 27.3359 14.7012 27.1699 14.8477 26.8574L15.3652 25.8711C15.5801 25.8906 15.7852 25.9004 16 25.9004ZM18.7344 14.9434C18.1973 13.6348 17.0938 12.9316 15.8828 12.9316C15.7363 12.9316 15.5703 12.9414 15.3164 13L12.9629 8.94727C13.8809 8.54688 14.9062 8.32227 15.9902 8.32227C19.877 8.32227 22.9434 11.1934 23.4316 14.9434H18.7344ZM8.49023 15.9883C8.49023 13.5664 9.54492 11.418 11.2344 10.0215L13.5879 14.0645C13.0898 14.6797 12.8555 15.3438 12.8555 15.998C12.8555 16.6426 13.0703 17.248 13.5879 17.8828L11.1562 21.8867C9.51562 20.4805 8.49023 18.3711 8.49023 15.9883ZM14.7207 15.998C14.7207 15.3438 15.2578 14.8457 15.8828 14.8457C16.5273 14.8457 17.0547 15.3438 17.0547 15.998C17.0547 16.6328 16.5273 17.1699 15.8828 17.1699C15.2676 17.1699 14.7207 16.6328 14.7207 15.998ZM15.9902 23.6445C14.8672 23.6445 13.8125 23.4102 12.8652 22.9707L15.2871 18.9961C15.5508 19.0449 15.7266 19.0547 15.8828 19.0547C17.1035 19.0547 18.1973 18.3516 18.7246 17.0039H23.4316C22.9629 20.7734 19.8867 23.6445 15.9902 23.6445Z" fill="#1E6BFF"/>
</svg>
