<svg width="22" height="21" viewBox="0 0 22 21" fill="none" xmlns="http://www.w3.org/2000/svg">
<path d="M19.125 10.6367C19.125 10.3291 18.9932 10.0127 18.7734 9.80176L13.0254 4.05371C12.7793 3.80762 12.498 3.69336 12.2168 3.69336C11.5664 3.69336 11.1094 4.15918 11.1094 4.76562C11.1094 5.09961 11.25 5.36328 11.4521 5.57422L13.4473 7.57812L15.6709 9.61719L13.6934 9.51172H3.40137C2.70703 9.51172 2.24121 9.96875 2.24121 10.6367C2.24121 11.3047 2.70703 11.7617 3.40137 11.7617H13.6934L15.6709 11.6475L13.4473 13.6953L11.4521 15.6904C11.25 15.9014 11.1094 16.165 11.1094 16.499C11.1094 17.1143 11.5664 17.5713 12.2168 17.5713C12.498 17.5713 12.7705 17.457 13.0078 17.2197L18.7734 11.4717C18.9932 11.252 19.125 10.9443 19.125 10.6367Z" fill="white"/>
</svg>
