<svg xmlns="http://www.w3.org/2000/svg" width="32" height="32" fill="none" viewBox="0 0 32 32"><rect width="32" height="32" fill="#FF7502" opacity=".06" rx="10"/><path fill="#FF7502" d="M26.5156 13.9609C26.5156 12.4062 25.5312 11.4531 23.9609 11.4531H8.03125C6.45312 11.4531 5.48438 12.4062 5.48438 13.9609V18.75C5.48438 20.3047 6.46094 21.2734 8.03906 21.2734H23.9766C25.5391 21.2734 26.5156 20.3047 26.5156 18.75V13.9609ZM24.3047 14.2734L24.2969 18.4453C24.2969 18.8203 24.0703 19.0547 23.7109 19.0547H8.28125C7.92188 19.0547 7.69531 18.8203 7.69531 18.4453V14.2734C7.69531 13.8984 7.92969 13.6641 8.28906 13.6641H8.29688V17.0859C8.29688 17.3359 8.50781 17.5234 8.75781 17.5234C9.01562 17.5234 9.1875 17.3281 9.1875 17.0703L9.19531 13.6641H9.74219V16.0234C9.74219 16.2734 9.95312 16.4609 10.2031 16.4609C10.4609 16.4609 10.6406 16.2656 10.6406 16.0078V13.6641H11.1875V16.0234C11.1875 16.2734 11.3984 16.4609 11.6484 16.4609C11.9062 16.4609 12.0859 16.2656 12.0859 16.0078V13.6641H12.6328V16.0234C12.6328 16.2734 12.8438 16.4609 13.0938 16.4609C13.3516 16.4609 13.5312 16.2656 13.5312 16.0078V13.6641H14.0859V16.0234C14.0859 16.2734 14.2969 16.4609 14.5391 16.4609C14.8047 16.4609 14.9766 16.2656 14.9766 16.0078V13.6641H15.5312V17.0859C15.5312 17.3359 15.7422 17.5234 15.9922 17.5234C16.25 17.5234 16.4219 17.3281 16.4219 17.0703L16.4297 13.6641H16.9766V16.0234C16.9766 16.2734 17.1875 16.4609 17.4375 16.4609C17.6953 16.4609 17.8672 16.2656 17.8672 16.0078L17.875 13.6641H18.4219V16.0234C18.4219 16.2734 18.6328 16.4609 18.8828 16.4609C19.1406 16.4609 19.3203 16.2656 19.3203 16.0078V13.6641H19.8672V16.0234C19.8672 16.2734 20.0781 16.4609 20.3281 16.4609C20.5859 16.4609 20.7656 16.2656 20.7656 16.0078V13.6641H21.3203V16.0234C21.3203 16.2734 21.5312 16.4609 21.7734 16.4609C22.0391 16.4609 22.2109 16.2656 22.2109 16.0078V13.6641H22.7656V17.0859C22.7656 17.3359 22.9766 17.5234 23.2266 17.5234C23.4844 17.5234 23.6562 17.3281 23.6562 17.0703V13.6641H23.7188C24.0781 13.6641 24.3047 13.8984 24.3047 14.2734Z"/></svg>