<svg width="32" height="32" viewBox="0 0 32 32" fill="none" xmlns="http://www.w3.org/2000/svg">
<rect opacity="0.06" width="32" height="32" rx="10" fill="#B21FF1"/>
<path d="M17.4531 9.96875C17.5781 9.96875 17.6562 9.88281 17.6719 9.76562C17.8828 8.48438 17.8828 8.47656 19.2031 8.23438C19.3359 8.21094 19.4141 8.13281 19.4141 8.01562C19.4141 7.89062 19.3359 7.8125 19.2188 7.78906C17.8672 7.51562 17.8828 7.50781 17.6719 6.26562C17.6562 6.14062 17.5781 6.05469 17.4531 6.05469C17.3281 6.05469 17.25 6.14062 17.2344 6.25781C17.0078 7.54688 17.0312 7.5625 15.6953 7.78906C15.5781 7.80469 15.4922 7.89062 15.4922 8.01562C15.4922 8.13281 15.5703 8.21094 15.6875 8.23438C17.0312 8.50781 17.0234 8.50781 17.2344 9.77344C17.25 9.88281 17.3281 9.96875 17.4531 9.96875ZM15.1094 23.9375C18.2031 23.9375 20.8594 22.2266 22.0703 19.4844C22.3281 18.8984 22.25 18.4375 21.9766 18.1797C21.7109 17.9297 21.2578 17.875 20.7891 18.0938C20.2031 18.3516 19.4531 18.4922 18.6328 18.4922C15.2031 18.4922 13.0234 16.4062 13.0234 13.0625C13.0234 12.1484 13.2188 11.2344 13.4922 10.6406C13.7266 10.0938 13.6953 9.6875 13.4453 9.40625C13.1797 9.10156 12.7109 9.05469 12.1484 9.28125C9.35938 10.4062 7.50781 13.2109 7.50781 16.375C7.50781 20.6953 10.6797 23.9375 15.1094 23.9375ZM21.2344 15.5547C21.4297 15.5547 21.5703 15.4219 21.5938 15.2188C21.8438 13.1797 21.9219 13.1094 24.0156 12.7891C24.2344 12.7578 24.3672 12.625 24.3672 12.4297C24.3672 12.2422 24.2344 12.1094 24.0547 12.0703C21.9219 11.6406 21.8438 11.6797 21.5938 9.64844C21.5703 9.44531 21.4297 9.3125 21.2344 9.3125C21.0469 9.3125 20.9062 9.44531 20.8828 9.64062C20.6172 11.7266 20.5625 11.7812 18.4219 12.0703C18.2422 12.1016 18.1094 12.2422 18.1094 12.4297C18.1094 12.6172 18.2344 12.75 18.4219 12.7891C20.5703 13.2266 20.6094 13.2031 20.8828 15.2344C20.9062 15.4219 21.0469 15.5547 21.2344 15.5547ZM15.1172 21.875C11.8828 21.875 9.5625 19.5 9.5625 16.3281C9.5625 14.7578 10.2109 13.2344 11.3125 12.1953C11.2109 12.5469 11.1562 13.0234 11.1562 13.4844C11.1562 17.6406 13.9141 20.3516 18.1641 20.3516C18.5312 20.3516 18.875 20.3047 19.0703 20.25C18.1328 21.2812 16.6641 21.875 15.1172 21.875Z" fill="#B21FF1"/>
</svg>
