<svg fill="none" height="32" viewBox="0 0 32 32" width="32" xmlns="http://www.w3.org/2000/svg"><g fill="#00a396"><rect height="32" opacity=".06" rx="10" width="32"/><path d="m15.3438 10.5781c.1328 0 .2343-.0937.25-.2265.1953-1.24222.1874-1.24222 1.5156-1.50785.1406-.02344.2344-.11719.2344-.25 0-.14063-.1016-.23437-.2422-.25781-1.3204-.19532-1.3125-.21094-1.5078-1.5-.0157-.13282-.1172-.23438-.25-.23438-.1407 0-.2344.10156-.25.24219-.1797 1.22656-.1797 1.22656-1.5235 1.49219-.1328.03125-.2265.11718-.2265.25781 0 .13281.0937.22656.25.25 1.3046.23437 1.3124.23437 1.5 1.50005.0156.1406.1093.2343.25.2343zm-3.8204 5.7657c.211 0 .3828-.1563.4063-.3594.2656-2.0078.2891-2.0391 2.4375-2.4219.2109-.0313.3516-.1953.3516-.4063 0-.2109-.1485-.3828-.3594-.4062-2.1172-.2812-2.1641-.3281-2.4297-2.4062-.0235-.2188-.1875-.37505-.4063-.37505-.2187 0-.3828.15625-.4062.38285-.2422 2-.2891 2.0234-2.43751 2.3984-.20313.0391-.35157.1953-.35157.4062 0 .2188.14844.375.39844.4063 2.08594.3125 2.14844.3828 2.39064 2.3984.0234.2266.1875.3829.4062.3829zm5.8047 8.5859c.2969 0 .5391-.2188.5781-.5313.5938-4.0937 1.1563-4.7656 5.2188-5.2265.3203-.0313.5469-.2891.5469-.586 0-.3047-.2266-.5468-.5469-.5937-3.9688-.5391-4.5234-1.0625-5.2188-5.2266-.0468-.3125-.289-.5312-.5781-.5312-.3047 0-.539.2187-.5859.5312-.586 4.0938-1.1563 4.7656-5.211 5.2266-.3203.039-.5468.289-.5468.5937 0 .2969.2265.5469.5468.586 3.961.5625 4.5157 1.0625 5.211 5.2265.0547.3125.289.5313.5859.5313z"/></g></svg>