<svg xmlns="http://www.w3.org/2000/svg" width="10" height="15" fill="none" viewBox="0 0 10 15"><path fill="#BBB" d="M9.6875 7.59009C9.67969 7.06665 9.5 6.65259 9.0625 6.2229L3.35156 0.644775C3.03906 0.332275 2.6875 0.19165 2.24219 0.19165C1.35156 0.19165 0.617188 0.926025 0.617188 1.80103C0.617188 2.23853 0.796875 2.65259 1.14844 2.98853L5.9375 7.58228L1.14844 12.1838C0.804688 12.5276 0.617188 12.9338 0.617188 13.387C0.617188 14.262 1.35156 14.9885 2.24219 14.9885C2.67969 14.9885 3.03906 14.8479 3.35156 14.5432L9.0625 8.95728C9.50781 8.52759 9.6875 8.10571 9.6875 7.59009Z"/></svg>