<svg xmlns="http://www.w3.org/2000/svg" width="14" height="12" fill="none" viewBox="0 0 14 12"><path fill="#00A396" d="M8.375 3.9375C9.08333 3.58333 9.73958 3.40625 10.3438 3.40625C10.9479 3.40625 11.6042 3.58333 12.3125 3.9375C12.8125 4.1875 13.2604 4.3125 13.6562 4.3125V5.625C13.0521 5.625 12.3958 5.44792 11.6875 5.09375C11.1458 4.82292 10.6979 4.6875 10.3438 4.6875C9.96875 4.6875 9.51042 4.82292 8.96875 5.09375C8.26042 5.44792 7.60417 5.625 7 5.625C6.39583 5.625 5.73958 5.44792 5.03125 5.09375C4.48958 4.82292 4.03125 4.6875 3.65625 4.6875C3.30208 4.6875 2.85417 4.82292 2.3125 5.09375C1.60417 5.44792 0.947917 5.625 0.34375 5.625V4.3125C0.739583 4.3125 1.1875 4.1875 1.6875 3.9375C2.39583 3.58333 3.05208 3.40625 3.65625 3.40625C4.26042 3.40625 4.91667 3.58333 5.625 3.9375C6.125 4.1875 6.58333 4.3125 7 4.3125C7.41667 4.3125 7.875 4.1875 8.375 3.9375ZM12.3125 0.96875C12.8542 1.23958 13.3021 1.375 13.6562 1.375V2.65625C13.0521 2.65625 12.3958 2.47917 11.6875 2.125C11.1458 1.85417 10.6979 1.71875 10.3438 1.71875C9.96875 1.71875 9.51042 1.85417 8.96875 2.125C8.26042 2.47917 7.60417 2.65625 7 2.65625C6.39583 2.65625 5.73958 2.47917 5.03125 2.125C4.48958 1.85417 4.03125 1.71875 3.65625 1.71875C3.30208 1.71875 2.85417 1.85417 2.3125 2.125C1.60417 2.47917 0.947917 2.65625 0.34375 2.65625V1.375C0.697917 1.375 1.14583 1.23958 1.6875 0.96875C2.39583 0.614583 3.05208 0.4375 3.65625 0.4375C4.26042 0.4375 4.91667 0.614583 5.625 0.96875C6.16667 1.23958 6.625 1.375 7 1.375C7.375 1.375 7.83333 1.23958 8.375 0.96875C9.08333 0.614583 9.73958 0.4375 10.3438 0.4375C10.9479 0.4375 11.6042 0.614583 12.3125 0.96875ZM8.375 6.90625C9.08333 6.55208 9.73958 6.375 10.3438 6.375C10.9479 6.375 11.6042 6.55208 12.3125 6.90625C12.8125 7.15625 13.2604 7.28125 13.6562 7.28125V8.59375C13.0521 8.59375 12.3958 8.41667 11.6875 8.0625C11.1458 7.79167 10.6979 7.65625 10.3438 7.65625C9.96875 7.65625 9.51042 7.79167 8.96875 8.0625C8.26042 8.41667 7.60417 8.59375 7 8.59375C6.39583 8.59375 5.73958 8.41667 5.03125 8.0625C4.48958 7.79167 4.03125 7.65625 3.65625 7.65625C3.30208 7.65625 2.85417 7.79167 2.3125 8.0625C1.60417 8.41667 0.947917 8.59375 0.34375 8.59375V7.28125C0.739583 7.28125 1.1875 7.15625 1.6875 6.90625C2.39583 6.55208 3.05208 6.375 3.65625 6.375C4.26042 6.375 4.91667 6.55208 5.625 6.90625C6.125 7.15625 6.58333 7.28125 7 7.28125C7.41667 7.28125 7.875 7.15625 8.375 6.90625ZM8.375 9.875C9.125 9.5 9.78125 9.3125 10.3438 9.3125C10.9062 9.3125 11.5625 9.5 12.3125 9.875C12.8125 10.125 13.2604 10.25 13.6562 10.25V11.5625C13.0521 11.5625 12.3958 11.3854 11.6875 11.0312C11.1458 10.7604 10.6979 10.625 10.3438 10.625C9.96875 10.625 9.51042 10.7604 8.96875 11.0312C8.26042 11.3854 7.60417 11.5625 7 11.5625C6.39583 11.5625 5.73958 11.3854 5.03125 11.0312C4.48958 10.7604 4.03125 10.625 3.65625 10.625C3.30208 10.625 2.85417 10.7604 2.3125 11.0312C1.60417 11.3854 0.947917 11.5625 0.34375 11.5625V10.25C0.739583 10.25 1.1875 10.125 1.6875 9.875C2.4375 9.5 3.09375 9.3125 3.65625 9.3125C4.21875 9.3125 4.875 9.5 5.625 9.875C6.125 10.125 6.58333 10.25 7 10.25C7.41667 10.25 7.875 10.125 8.375 9.875Z"/></svg>