<svg xmlns="http://www.w3.org/2000/svg" width="32" height="32" fill="none" viewBox="0 0 32 32"><path fill="#BBB" d="M9.05469 18.0234L14.6328 12.3047C15.0703 11.8672 15.4844 11.6797 16 11.6797C16.5312 11.6875 16.9375 11.875 17.375 12.3047L22.9453 18.0234C23.2578 18.3281 23.3984 18.6875 23.3984 19.1328C23.3984 20.0234 22.6719 20.7578 21.7969 20.7578C21.3516 20.7578 20.9375 20.5781 20.6016 20.2188L16.0156 15.4375L11.4062 20.2188C11.0703 20.5703 10.6562 20.7578 10.2031 20.7578C9.32812 20.7578 8.60156 20.0234 8.60156 19.1328C8.60156 18.6953 8.75 18.3359 9.05469 18.0234Z"/></svg>