<svg xmlns="http://www.w3.org/2000/svg" width="32" height="32" fill="none" viewBox="0 0 32 32"><rect width="32" height="32" x="0" fill="#1E6BFF" opacity=".06" rx="10"/><path fill="#1E6BFF" d="M16.0001 18.2031C16.6251 18.2031 17.0938 17.6953 17.0938 17.1172V9.78125L17.0001 8.65625L17.336 9.30469L18.1172 10.1406C18.2969 10.3281 18.5469 10.4453 18.8204 10.4453C19.2813 10.4453 19.7422 10.0781 19.7422 9.55469C19.7422 9.28125 19.6407 9.09375 19.461 8.91406L16.8985 6.45312C16.6016 6.16406 16.3047 6.0625 16.0001 6.0625C15.7032 6.0625 15.3985 6.16406 15.1094 6.45312L12.5469 8.91406C12.3672 9.09375 12.2657 9.28125 12.2657 9.55469C12.2657 10.0781 12.7188 10.4453 13.1876 10.4453C13.461 10.4453 13.711 10.3281 13.8907 10.1406L14.6719 9.30469L15.0079 8.65625L14.9141 9.78125V17.1172C14.9141 17.6953 15.3829 18.2031 16.0001 18.2031ZM11.4454 24.8281H20.5547C22.4376 24.8281 23.5235 23.75 23.5235 21.8672V14.5625C23.5235 12.6797 22.4376 11.6016 20.5547 11.6016H18.6641V14.1328H20.1954C20.7188 14.1328 20.9844 14.3672 20.9844 14.9375V21.5C20.9844 22.0625 20.7188 22.2969 20.1954 22.2969H11.8047C11.2735 22.2969 11.0079 22.0625 11.0079 21.5V14.9375C11.0079 14.3672 11.2735 14.1328 11.8047 14.1328H13.3985V11.6016H11.4454C9.56256 11.6016 8.47662 12.6797 8.47662 14.5625V21.8672C8.47662 23.75 9.56256 24.8281 11.4454 24.8281Z"/></svg>