<svg xmlns="http://www.w3.org/2000/svg" width="16" height="16" fill="none" viewBox="0 0 16 16"><path fill="#000" d="M8 15.3105C11.9717 15.3105 15.2393 12.043 15.2393 8.07129C15.2393 4.09277 11.9717 0.825195 7.99316 0.825195C4.01465 0.825195 0.753906 4.09277 0.753906 8.07129C0.753906 12.043 4.02148 15.3105 8 15.3105ZM8 13.4512C5.0127 13.4512 2.62012 11.0518 2.62012 8.07129C2.62012 5.08398 5.0127 2.68457 7.99316 2.68457C10.9736 2.68457 13.3799 5.08398 13.3799 8.07129C13.3867 11.0518 10.9805 13.4512 8 13.4512ZM7.99316 5.97266C8.55371 5.97266 9.01172 5.51465 9.01172 4.96094C9.01172 4.38672 8.55371 3.93555 7.99316 3.93555C7.43945 3.93555 6.98145 4.38672 6.98145 4.96094C6.98145 5.51465 7.43945 5.97266 7.99316 5.97266ZM6.76953 11.708H9.52441C9.87988 11.708 10.1602 11.4482 10.1602 11.0791C10.1602 10.7373 9.87988 10.4639 9.52441 10.4639H8.92969V7.69531C8.92969 7.20996 8.68359 6.89551 8.22559 6.89551H6.89941C6.53711 6.89551 6.25684 7.16211 6.25684 7.51074C6.25684 7.87988 6.53711 8.13281 6.89941 8.13281H7.52148V10.4639H6.76953C6.41406 10.4639 6.12695 10.7373 6.12695 11.0791C6.12695 11.4482 6.41406 11.708 6.76953 11.708Z"/></svg>