<svg width="32" height="32" viewBox="0 0 32 32" fill="none" xmlns="http://www.w3.org/2000/svg">
<rect opacity="0.06" x="6.10352e-05" width="32" height="32" rx="10" fill="#F90000"/>
<path d="M12.3751 24.7812H19.6172C21.0938 24.7812 21.9688 24.0312 22.0391 22.5391L22.5313 11.6484H23.1329C23.7579 11.6484 24.211 11.2266 24.211 10.6016C24.211 10 23.7579 9.57031 23.1329 9.57031H19.9844V8.48438C19.9844 7.0625 19.1172 6.29688 17.4844 6.29688H14.5001C12.8751 6.29688 12.0079 7.0625 12.0079 8.48438V9.57031H8.85944C8.23444 9.57031 7.78131 10 7.78131 10.6016C7.78131 11.2266 8.23444 11.6484 8.85944 11.6484H9.461L9.95319 22.5391C10.0235 24.0312 10.8907 24.7812 12.3751 24.7812ZM14.1719 8.53125C14.1719 8.27344 14.3516 8.125 14.6641 8.125H17.3204C17.6329 8.125 17.8126 8.27344 17.8126 8.53125V9.57031H14.1719V8.53125ZM12.6954 22.6562C12.3126 22.6562 12.0938 22.3984 12.0782 21.9297L11.6094 11.6484H20.3751L19.9141 21.9297C19.8985 22.3984 19.6797 22.6562 19.2891 22.6562H12.6954ZM13.7344 21.6562C14.1797 21.6562 14.4688 21.3672 14.4454 20.9453L14.2188 13.3594C14.211 12.9453 13.9141 12.6641 13.4844 12.6641C13.0469 12.6641 12.7735 12.9453 12.7891 13.375L13.0235 20.9609C13.0391 21.375 13.3204 21.6562 13.7344 21.6562ZM15.9922 21.6562C16.4219 21.6562 16.7032 21.3828 16.7032 20.9688V13.3594C16.7032 12.9375 16.4219 12.6641 15.9922 12.6641C15.5704 12.6641 15.2891 12.9375 15.2891 13.3594V20.9688C15.2891 21.3828 15.5704 21.6562 15.9922 21.6562ZM18.2579 21.6562C18.6641 21.6562 18.9532 21.375 18.9688 20.9609L19.2032 13.375C19.2188 12.9453 18.9376 12.6641 18.5079 12.6641C18.0782 12.6641 17.7813 12.9453 17.7735 13.3594L17.5391 20.9453C17.5235 21.3672 17.8126 21.6562 18.2579 21.6562Z" fill="#F90000"/>
</svg>
