<svg width="32" height="32" viewBox="0 0 32 32" fill="none" xmlns="http://www.w3.org/2000/svg">
<circle opacity="0.05" cx="16" cy="16" r="16" fill="#000"/>
<path d="M10.4609 16.6641C10.4609 17.2109 10.6562 17.6484 11.125 18.1016L16.4453 23.3047C16.7656 23.625 17.1406 23.7734 17.5938 23.7734C18.5234 23.7734 19.2969 23.0078 19.2969 22.1016C19.2969 21.6328 19.0938 21.2031 18.7266 20.8438L14.3672 16.6562L18.7266 12.4844C19.1016 12.125 19.2969 11.6953 19.2969 11.2344C19.2969 10.3281 18.5234 9.5625 17.5938 9.5625C17.1328 9.5625 16.7656 9.71094 16.4453 10.0312L11.125 15.2188C10.6641 15.6797 10.4688 16.1094 10.4609 16.6641Z" fill="#000"/>
</svg>
