<svg xmlns="http://www.w3.org/2000/svg" width="18" height="19" fill="none" viewBox="0 0 18 19"><path fill="#000" d="M5.375 18.7812H12.6172C14.0938 18.7812 14.9688 18.0312 15.0391 16.5391L15.5312 5.64844H16.1328C16.7578 5.64844 17.2109 5.22656 17.2109 4.60156C17.2109 4 16.7578 3.57031 16.1328 3.57031H12.9844V2.48438C12.9844 1.0625 12.1172 0.296875 10.4844 0.296875H7.5C5.875 0.296875 5.00781 1.0625 5.00781 2.48438V3.57031H1.85938C1.23438 3.57031 0.78125 4 0.78125 4.60156C0.78125 5.22656 1.23438 5.64844 1.85938 5.64844H2.46094L2.95312 16.5391C3.02344 18.0312 3.89062 18.7812 5.375 18.7812ZM7.17188 2.53125C7.17188 2.27344 7.35156 2.125 7.66406 2.125H10.3203C10.6328 2.125 10.8125 2.27344 10.8125 2.53125V3.57031H7.17188V2.53125ZM5.69531 16.6562C5.3125 16.6562 5.09375 16.3984 5.07812 15.9297L4.60938 5.64844H13.375L12.9141 15.9297C12.8984 16.3984 12.6797 16.6562 12.2891 16.6562H5.69531ZM6.73438 15.6562C7.17969 15.6562 7.46875 15.3672 7.44531 14.9453L7.21875 7.35938C7.21094 6.94531 6.91406 6.66406 6.48438 6.66406C6.04688 6.66406 5.77344 6.94531 5.78906 7.375L6.02344 14.9609C6.03906 15.375 6.32031 15.6562 6.73438 15.6562ZM8.99219 15.6562C9.42188 15.6562 9.70312 15.3828 9.70312 14.9688V7.35938C9.70312 6.9375 9.42188 6.66406 8.99219 6.66406C8.57031 6.66406 8.28906 6.9375 8.28906 7.35938V14.9688C8.28906 15.3828 8.57031 15.6562 8.99219 15.6562ZM11.2578 15.6562C11.6641 15.6562 11.9531 15.375 11.9688 14.9609L12.2031 7.375C12.2188 6.94531 11.9375 6.66406 11.5078 6.66406C11.0781 6.66406 10.7812 6.94531 10.7734 7.35938L10.5391 14.9453C10.5234 15.3672 10.8125 15.6562 11.2578 15.6562Z"/></svg>