<svg width="20" height="15" viewBox="0 0 20 15" fill="none" xmlns="http://www.w3.org/2000/svg">
<path d="M3.78125 14.4688H16.4141C18.1016 14.4688 19.0859 13.4766 19.0859 11.6953V3.04688C19.0859 1.25781 18.0938 0.273438 16.2969 0.273438H3.66406C1.98438 0.273438 0.992188 1.25781 0.992188 3.04688V11.6953C0.992188 13.4844 1.98438 14.4688 3.78125 14.4688ZM9.25781 7.41406L4.03125 2.24219H16.0625L10.8359 7.41406C10.5312 7.71094 10.2969 7.83594 10.0469 7.83594C9.79688 7.83594 9.5625 7.71094 9.25781 7.41406ZM2.92188 3.50781L6.74219 7.27344L2.92188 11.0703V3.50781ZM13.3516 7.26562L17.1562 3.52344V11.0547L13.3516 7.26562ZM10.0469 9.57812C10.6875 9.57812 11.2812 9.3125 11.8672 8.72656L12.1484 8.45312L16.2188 12.5H3.875L7.9375 8.45312L8.21875 8.72656C8.8125 9.3125 9.40625 9.57812 10.0469 9.57812Z" fill="#000"/>
</svg>
