<svg width="32" height="32" viewBox="0 0 32 32" fill="none" xmlns="http://www.w3.org/2000/svg">
<rect opacity="0.04" width="32" height="32" rx="12.54" fill="#000"/>
<path d="M10.6328 17.8828H14.4766V21.7266C14.4766 22.5625 15.1562 23.2422 15.9922 23.2422C16.8359 23.2422 17.5078 22.5625 17.5078 21.7266V17.8828H21.3594C22.1953 17.8828 22.875 17.2031 22.875 16.3672C22.875 15.5234 22.1953 14.8516 21.3594 14.8516H17.5078V11C17.5078 10.1641 16.8359 9.48438 15.9922 9.48438C15.1562 9.48438 14.4766 10.1641 14.4766 11V14.8516H10.6328C9.79688 14.8516 9.11719 15.5234 9.11719 16.3672C9.11719 17.2031 9.79688 17.8828 10.6328 17.8828Z" fill="#000"/>
</svg>
