<svg xmlns="http://www.w3.org/2000/svg" width="26" height="16" fill="none" viewBox="0 0 26 16"><path fill="#1E6BFF" d="M24.6094 2.60938L25.2578 1.92969C25.625 1.54688 25.6641 1.00781 25.3047 0.640625L25.0625 0.390625C24.75 0.0703125 24.1953 0.148438 23.8359 0.5L23.1562 1.15625L24.6094 2.60938ZM15.9453 10.2266L17.7031 9.51562L24.0625 3.15625L22.6094 1.71094L16.25 8.07031L15.5234 9.79688C15.4141 10.0703 15.7031 10.3203 15.9453 10.2266ZM2.76562 15.8516H20.7031C22.1875 15.8516 23.0312 15.0234 23.0312 13.5547V6.30469L20.8906 8.44531V13.0547C20.8906 13.5859 20.5781 13.9062 20.0312 13.9062H3.4375C2.88281 13.9062 2.57812 13.5859 2.57812 13.0547V6.65625C2.57812 6.10156 2.88281 5.80469 3.4375 5.80469H16.3438L18.2969 3.85938H2.76562C1.28125 3.85938 0.4375 4.6875 0.4375 6.16406V13.5547C0.4375 15.0234 1.28125 15.8516 2.76562 15.8516ZM5.46094 11.1016C6.14844 11.1016 6.70312 10.5469 6.70312 9.85156C6.70312 9.16406 6.14844 8.60938 5.46094 8.60938C4.76562 8.60938 4.21094 9.16406 4.21094 9.85156C4.21094 10.5469 4.76562 11.1016 5.46094 11.1016ZM9.07812 11.1016C9.76562 11.1016 10.3203 10.5469 10.3203 9.85156C10.3203 9.16406 9.76562 8.60938 9.07812 8.60938C8.39062 8.60938 7.82812 9.16406 7.82812 9.85156C7.82812 10.5469 8.39062 11.1016 9.07812 11.1016ZM12.6875 11.1016C13.3828 11.1016 13.9375 10.5469 13.9375 9.85156C13.9375 9.16406 13.3828 8.60938 12.6875 8.60938C12 8.60938 11.4453 9.16406 11.4453 9.85156C11.4453 10.5469 12 11.1016 12.6875 11.1016Z"/></svg>