<svg xmlns="http://www.w3.org/2000/svg" width="10" height="16" fill="none" viewBox="0 0 10 16"><path xmlns="http://www.w3.org/2000/svg" fill="#000" d="M9.6875 8.35938C9.67969 7.83594 9.5 7.42188 9.0625 6.99219L3.35156 1.41406C3.03906 1.10156 2.6875 0.960938 2.24219 0.960938C1.35156 0.960938 0.617188 1.69531 0.617188 2.57031C0.617188 3.00781 0.796875 3.42188 1.14844 3.75781L5.9375 8.35156L1.14844 12.9531C0.804688 13.2969 0.617188 13.7031 0.617188 14.1562C0.617188 15.0312 1.35156 15.7578 2.24219 15.7578C2.67969 15.7578 3.03906 15.6172 3.35156 15.3125L9.0625 9.72656C9.50781 9.29688 9.6875 8.875 9.6875 8.35938Z"/></svg>