<svg width="18" height="17" viewBox="0 0 18 17" fill="none" xmlns="http://www.w3.org/2000/svg">
<path d="M9 16.6406C13.5391 16.6406 17.2734 12.9062 17.2734 8.36719C17.2734 3.82031 13.5391 0.0859375 8.99219 0.0859375C4.44531 0.0859375 0.71875 3.82031 0.71875 8.36719C0.71875 12.9062 4.45312 16.6406 9 16.6406ZM9 14.5156C5.58594 14.5156 2.85156 11.7734 2.85156 8.36719C2.85156 4.95312 5.58594 2.21094 8.99219 2.21094C12.3984 2.21094 15.1484 4.95312 15.1484 8.36719C15.1562 11.7734 12.4062 14.5156 9 14.5156ZM13.0625 8.36719C13.0625 8.07812 12.9531 7.83594 12.7344 7.63281L10.0625 5.07812C9.88281 4.90625 9.71094 4.83594 9.46875 4.83594C9.03125 4.83594 8.71875 5.16406 8.71875 5.61719C8.71875 5.84375 8.82031 6.0625 8.97656 6.19531L9.85156 7L10.625 7.55469L9.11719 7.46094H5.76562C5.26562 7.46094 4.91406 7.85938 4.91406 8.375C4.91406 8.88281 5.26562 9.28125 5.76562 9.28125H9.11719L10.625 9.1875L9.86719 9.74219L8.97656 10.5469C8.8125 10.6797 8.71875 10.8906 8.71875 11.125C8.71875 11.5781 9.03125 11.9062 9.46875 11.9062C9.71094 11.9062 9.88281 11.8359 10.0625 11.6641L12.7344 9.11719C12.9531 8.91406 13.0625 8.67188 13.0625 8.36719Z" fill="#000"/>
</svg>
