<svg width="24" height="24" viewBox="0 0 24 24" fill="none" xmlns="http://www.w3.org/2000/svg">
<circle opacity="0.1" cx="12" cy="12" r="12" fill="white"/>
<path d="M10.8223 17.1777C11.3262 17.1777 11.7129 16.9961 11.9766 16.6035L17.3848 8.5C17.5723 8.22461 17.6484 7.94336 17.6484 7.69727C17.6484 6.99414 17.0977 6.4668 16.377 6.4668C15.8848 6.4668 15.5742 6.64258 15.2754 7.11133L10.8047 14.1074L8.57812 11.4941C8.31445 11.1895 8.01562 11.0488 7.60547 11.0488C6.87891 11.0488 6.3457 11.5762 6.3457 12.2852C6.3457 12.6074 6.43359 12.8652 6.70898 13.1816L9.7207 16.6797C10.0195 17.0254 10.3711 17.1777 10.8223 17.1777Z" fill="#000"/>
</svg>
