
<svg width="32" height="32" viewBox="0 0 32 32" fill="none" xmlns="http://www.w3.org/2000/svg">
<rect opacity="0.06" width="32" height="32" rx="10" fill="#00B25C"/>
<path d="M16 20.0547C16.3047 20.0547 16.6016 19.9453 16.8984 19.6641L19.4609 17.2031C19.6406 17.0234 19.7422 16.8359 19.7422 16.5625C19.7422 16.0312 19.2812 15.6719 18.8203 15.6719C18.5469 15.6719 18.2969 15.7891 18.1172 15.9766L17.3359 16.8125L16.9219 17.4609L17.0938 16.3359V8.70312C17.0938 8.125 16.625 7.61719 16 7.61719C15.3828 7.61719 14.9141 8.125 14.9141 8.70312V16.3359L15.0859 17.4609L14.6719 16.8125L13.8906 15.9766C13.7109 15.7891 13.4609 15.6719 13.1875 15.6719C12.7188 15.6719 12.2656 16.0312 12.2656 16.5625C12.2656 16.8359 12.3672 17.0234 12.5469 17.2031L15.1094 19.6641C15.3984 19.9453 15.7031 20.0547 16 20.0547ZM11.4453 24.8281H20.5547C22.4375 24.8281 23.5234 23.75 23.5234 21.8672V14.5625C23.5234 12.6797 22.4375 11.6016 20.5547 11.6016H18.6641V14.1328H20.1953C20.7188 14.1328 20.9844 14.3672 20.9844 14.9375V21.5C20.9844 22.0625 20.7188 22.2969 20.1953 22.2969H11.8047C11.2734 22.2969 11.0078 22.0625 11.0078 21.5V14.9375C11.0078 14.3672 11.2734 14.1328 11.8047 14.1328H13.3984V11.6016H11.4453C9.5625 11.6016 8.47656 12.6797 8.47656 14.5625V21.8672C8.47656 23.75 9.5625 24.8281 11.4453 24.8281Z" fill="#00B25C"/>
</svg>
