<svg width="32" height="32" viewBox="0 0 32 32" fill="none" xmlns="http://www.w3.org/2000/svg">
<circle opacity="0.05" cx="16" cy="16" r="16" fill="#000"/>
<path d="M10.0547 20.3906C9.5 20.9375 9.47656 21.9922 10.0781 22.5938C10.6875 23.1953 11.7344 23.1719 12.2891 22.6172L16 18.9141L19.7031 22.6094C20.2891 23.1953 21.3047 23.1875 21.9062 22.5859C22.5078 21.9844 22.5156 20.9609 21.9297 20.3828L18.2344 16.6797L21.9297 12.9766C22.5156 12.3906 22.5078 11.375 21.9062 10.7656C21.3047 10.1641 20.2891 10.1562 19.7031 10.7422L16 14.4453L12.2891 10.7344C11.7344 10.1797 10.6875 10.1562 10.0781 10.7578C9.47656 11.3672 9.5 12.4141 10.0547 12.9688L13.7656 16.6797L10.0547 20.3906Z" fill="#000"/>
</svg>
