<svg width="12" height="14" viewBox="0 0 12 14" fill="none" xmlns="http://www.w3.org/2000/svg">
<path d="M9.34375 6V4.65625H2.65625V6H9.34375ZM9.34375 8.65625V7.34375H2.65625V8.65625H9.34375ZM7.34375 11.3438V10H2.65625V11.3438H7.34375ZM6.46875 2.1875C6.34375 2.0625 6.1875 2 6 2C5.8125 2 5.65625 2.0625 5.53125 2.1875C5.40625 2.3125 5.34375 2.46875 5.34375 2.65625C5.34375 2.84375 5.40625 3.01042 5.53125 3.15625C5.65625 3.28125 5.8125 3.34375 6 3.34375C6.1875 3.34375 6.34375 3.28125 6.46875 3.15625C6.59375 3.01042 6.65625 2.84375 6.65625 2.65625C6.65625 2.46875 6.59375 2.3125 6.46875 2.1875ZM10.6562 2C11.0104 2 11.3229 2.13542 11.5938 2.40625C11.8646 2.67708 12 2.98958 12 3.34375V12.6562C12 13.0104 11.8646 13.3229 11.5938 13.5938C11.3229 13.8646 11.0104 14 10.6562 14H1.34375C0.989583 14 0.677083 13.8646 0.40625 13.5938C0.135417 13.3229 0 13.0104 0 12.6562V3.34375C0 2.98958 0.135417 2.67708 0.40625 2.40625C0.677083 2.13542 0.989583 2 1.34375 2H4.125C4.27083 1.60417 4.51042 1.28125 4.84375 1.03125C5.17708 0.78125 5.5625 0.65625 6 0.65625C6.4375 0.65625 6.82292 0.78125 7.15625 1.03125C7.48958 1.28125 7.72917 1.60417 7.875 2H10.6562Z" fill="#00B25C"/>
</svg>
