<svg xmlns="http://www.w3.org/2000/svg" width="16" height="16" fill="none" viewBox="0 0 16 16"><circle cx="8" cy="8" r="8" fill="#B21FF1"/><path fill="#fff" d="M5.31641 8.94141H7.23828V10.8633C7.23828 11.2812 7.57812 11.6211 7.99609 11.6211C8.41797 11.6211 8.75391 11.2812 8.75391 10.8633V8.94141H10.6797C11.0977 8.94141 11.4375 8.60156 11.4375 8.18359C11.4375 7.76172 11.0977 7.42578 10.6797 7.42578H8.75391V5.5C8.75391 5.08203 8.41797 4.74219 7.99609 4.74219C7.57812 4.74219 7.23828 5.08203 7.23828 5.5V7.42578H5.31641C4.89844 7.42578 4.55859 7.76172 4.55859 8.18359C4.55859 8.60156 4.89844 8.94141 5.31641 8.94141Z"/></svg>