<svg width="32" height="32" viewBox="0 0 32 32" fill="none" xmlns="http://www.w3.org/2000/svg">
<path d="M16 21.0703C16.5312 21.0625 16.9375 20.875 17.375 20.4453L22.9453 14.7266C23.2578 14.4141 23.3984 14.0625 23.3984 13.6172C23.3984 12.7266 22.6719 11.9922 21.7969 11.9922C21.3516 11.9922 20.9375 12.1719 20.6016 12.5234L16.0156 17.3125L11.4062 12.5234C11.0703 12.1797 10.6562 11.9922 10.2031 11.9922C9.32812 11.9922 8.60156 12.7266 8.60156 13.6172C8.60156 14.0547 8.75 14.4062 9.05469 14.7266L14.6328 20.4453C15.0703 20.8828 15.4844 21.0703 16 21.0703Z" fill="#BBBBBB"/>
</svg>
