<svg width="32" height="32" viewBox="0 0 32 32" fill="none" xmlns="http://www.w3.org/2000/svg">
<rect opacity="0.06" x="6.10352e-05" width="32" height="32" rx="10" fill="#00B25C"/>
<path d="M9.74225 23.4688H22.3751C24.0626 23.4688 25.0469 22.4766 25.0469 20.6953V12.0469C25.0469 10.2578 24.0547 9.27344 22.2579 9.27344H9.62506C7.94537 9.27344 6.95319 10.2578 6.95319 12.0469V20.6953C6.95319 22.4844 7.94537 23.4688 9.74225 23.4688ZM15.2188 16.4141L9.99225 11.2422H22.0235L16.7969 16.4141C16.4922 16.7109 16.2579 16.8359 16.0079 16.8359C15.7579 16.8359 15.5235 16.7109 15.2188 16.4141ZM8.88287 12.5078L12.7032 16.2734L8.88287 20.0703V12.5078ZM19.3126 16.2656L23.1172 12.5234V20.0547L19.3126 16.2656ZM16.0079 18.5781C16.6485 18.5781 17.2422 18.3125 17.8282 17.7266L18.1094 17.4531L22.1797 21.5H9.836L13.8985 17.4531L14.1797 17.7266C14.7735 18.3125 15.3672 18.5781 16.0079 18.5781Z" fill="#00B25C"/>
</svg>
