<svg width="32" height="32" viewBox="0 0 32 32" fill="none" xmlns="http://www.w3.org/2000/svg">
<rect opacity="0.06" x="6.10352e-05" width="32" height="32" rx="10" fill="#00A396"/>
<path d="M16.0001 24.8047C20.6407 24.8047 24.4376 21.0078 24.4376 16.3672C24.4376 11.7188 20.6407 7.92188 15.9922 7.92188C11.3516 7.92188 7.55475 11.7188 7.55475 16.3672C7.55475 21.0078 11.3516 24.8047 16.0001 24.8047ZM16.0001 22.2578C12.7344 22.2578 10.1016 19.625 10.1016 16.3672C10.1016 13.1016 12.7344 10.4688 15.9922 10.4688C19.2579 10.4688 21.8907 13.1016 21.8907 16.3672C21.8907 19.625 19.2579 22.2578 16.0001 22.2578ZM16.0001 21.1953C18.6407 21.1953 20.8282 19.0078 20.8282 16.3672C20.8282 13.7031 18.6719 11.5312 16.0001 11.5312C13.3516 11.5312 11.1641 13.7266 11.1641 16.3672C11.1641 19.0078 13.3672 21.1953 16.0001 21.1953ZM16.0001 19.1094C14.5235 19.1094 13.2501 17.8438 13.2501 16.3672C13.2501 14.875 14.5079 13.625 16.0001 13.625C17.4766 13.625 18.7422 14.8906 18.7422 16.3672C18.7422 17.8516 17.4844 19.1094 16.0001 19.1094ZM16.0001 18.0469C16.9141 18.0469 17.6797 17.2812 17.6797 16.3672C17.6797 15.4609 16.9063 14.6875 16.0001 14.6875C15.086 14.6875 14.3126 15.4531 14.3126 16.3672C14.3126 17.2734 15.0938 18.0469 16.0001 18.0469Z" fill="#00A396"/>
</svg>
