<svg width="32" height="32" viewBox="0 0 32 32" fill="none" xmlns="http://www.w3.org/2000/svg">
<rect opacity="0.06" x="6.10352e-05" width="32" height="32" rx="10" fill="#1E6BFF"/>
<path d="M16.8282 25.6562L24.6172 17.8672C25.3126 17.1641 25.4532 16.7031 25.4532 15.6094V12.6562C25.4532 11.6875 25.2266 11.25 24.4532 10.4766L22.6876 8.71094C21.9063 7.9375 21.4688 7.70312 20.5079 7.70312H17.5547C16.461 7.70312 16.0235 7.875 15.3282 8.57812L7.53912 16.3672C6.211 17.6953 6.20319 19.2188 7.53912 20.5469L12.6485 25.6562C13.9844 26.9844 15.5001 26.9844 16.8282 25.6562ZM15.3047 23.6094C14.9219 23.9844 14.5782 24 14.1797 23.6094L9.586 19.0234C9.17975 18.625 9.211 18.2656 9.586 17.8984L17.1407 10.3438C17.3047 10.1797 17.4063 10.125 17.6251 10.125H20.2813C20.4844 10.125 20.6485 10.1953 20.7579 10.3125L22.8516 12.4062C22.9688 12.5156 23.0391 12.6797 23.0391 12.8828V15.5391C23.0391 15.7969 23.0079 15.9062 22.8594 16.0547L15.3047 23.6094ZM19.336 15.125C20.0704 15.125 20.6407 14.5547 20.6407 13.8203C20.6407 13.0938 20.0704 12.5234 19.336 12.5234C18.6094 12.5234 18.0391 13.0938 18.0391 13.8203C18.0391 14.5547 18.6094 15.125 19.336 15.125Z" fill="#1E6BFF"/>
</svg>
