<svg xmlns="http://www.w3.org/2000/svg" width="32" height="32" fill="none" viewBox="0 0 32 32"><rect width="32" height="32" x="0" fill="#B21FF1" opacity=".06" rx="10"/><path fill="#B21FF1" d="M8.34381 12.9766H10.8751V12.0469C10.8751 11.4766 11.1407 11.2422 11.6719 11.2422H12.6016V8.71094H11.3126C9.42975 8.71094 8.34381 9.78906 8.34381 11.6719V12.9766ZM14.0001 11.2422H18.0001V8.71094H14.0001V11.2422ZM21.1251 12.9766H23.6563V11.6719C23.6563 9.79688 22.5704 8.71094 20.6954 8.71094H19.3985V11.2422H20.3282C20.8594 11.2422 21.1251 11.4766 21.1251 12.0469V12.9766ZM21.1251 18.3594H23.6563V14.375H21.1251V18.3594ZM8.34381 18.3594H10.8751V14.375H8.34381V18.3594ZM19.3985 24.0234H20.6954C22.5704 24.0234 23.6563 22.9453 23.6563 21.0703V19.7578H21.1251V20.6953C21.1251 21.2578 20.8594 21.4922 20.3282 21.4922H19.3985V24.0234ZM11.3126 24.0234H12.6016V21.4922H11.6719C11.1407 21.4922 10.8751 21.2578 10.8751 20.6953V19.7578H8.34381V21.0703C8.34381 22.9453 9.42975 24.0234 11.3126 24.0234ZM14.0001 24.0234H18.0001V21.4922H14.0001V24.0234Z"/></svg>