<svg xmlns="http://www.w3.org/2000/svg" width="32" height="32" fill="none" viewBox="0 0 32 32"><rect width="32" height="32" x="0" fill="#FF0073" opacity=".06" rx="10"/><path fill="#FF0073" d="M9.01569 21.7266L14.7188 24.75C15.5938 25.2109 16.3985 25.2109 17.2735 24.75L22.9766 21.7266C23.8438 21.2656 24.2032 20.7266 24.2032 19.6875V12.8828C24.2032 11.9844 23.8594 11.3828 23.0235 10.9453L17.6485 8.07812C16.6172 7.52344 15.3751 7.52344 14.3438 8.07812L8.96881 10.9453C8.13287 11.3828 7.78912 11.9844 7.78912 12.8828V19.6875C7.78912 20.7266 8.14069 21.2656 9.01569 21.7266ZM15.086 10.7812H16.9063V10.2266L20.8516 12.3359L16.9063 14.4375V13.8828H15.086V14.4375L11.1329 12.3359L15.086 10.2266V10.7812ZM15.086 13.2031H16.9063V11.4609H15.086V13.2031ZM14.1407 18.3516L14.8829 17.9766V22.3594L10.7266 20.1016L11.3829 19.7656L10.5391 18.1484L9.91412 18.4688V14.2266L13.9766 16.3906L13.3047 16.7344L14.1407 18.3516ZM20.6094 19.7656L21.2657 20.1016L17.1094 22.3594V17.9766L17.8516 18.3516L18.6797 16.7344L18.0079 16.3906L22.0782 14.2266V18.4688L21.4454 18.1484L20.6094 19.7656ZM11.9844 19.4688L13.5391 18.6641L12.7032 17.0469L11.1485 17.8359L11.9844 19.4688ZM18.4532 18.6641L20.0079 19.4688L20.8438 17.8359L19.2891 17.0469L18.4532 18.6641Z"/></svg>