<svg width="32" height="32" viewBox="0 0 32 32" fill="none" xmlns="http://www.w3.org/2000/svg">
<path d="M19.6513 12.2321V7.52857H20.3141C20.3693 7.52857 20.4141 7.4838 20.4141 7.42857V6C20.4141 5.94477 20.3693 5.9 20.3141 5.9H12.6859C12.6307 5.9 12.5859 5.94477 12.5859 6V7.42857C12.5859 7.4838 12.6307 7.52857 12.6859 7.52857H13.3487V12.2321L8.23438 21.8172C7.99341 22.2681 7.87923 22.7696 7.9031 23.274C7.92697 23.7785 8.08806 24.2685 8.3705 24.6974C8.65291 25.1263 9.04714 25.4798 9.51524 25.725C9.98331 25.9701 10.5101 26.0991 11.0457 26.1H11.0458H21.9542H21.9543C22.4899 26.0991 23.0167 25.9701 23.4848 25.725C23.9529 25.4798 24.3471 25.1263 24.6295 24.6974C24.9119 24.2685 25.073 23.7785 25.0969 23.274C25.1208 22.7696 25.0066 22.2681 24.7656 21.8172L19.6513 12.2321ZM18.0218 12.798L21.2001 18.7571H11.7999L14.9782 12.798C14.9783 12.7978 14.9784 12.7977 14.9784 12.7975C15.0406 12.6838 15.0735 12.5577 15.0744 12.4292V12.4286V7.52857H17.9256L17.9256 12.4286L17.9256 12.4292C17.9265 12.5577 17.9595 12.6838 18.0216 12.7976C18.0217 12.7977 18.0217 12.7979 18.0218 12.798ZM23.1672 23.8382C23.1543 23.858 23.1491 23.8812 23.1516 23.9038C23.0292 24.067 22.8685 24.2031 22.6809 24.3013C22.4684 24.4125 22.2287 24.4712 21.9846 24.4714H11.0464C10.8031 24.4702 10.5646 24.4109 10.3532 24.2997C10.1419 24.1884 9.96504 24.029 9.8388 23.8371C9.71259 23.6452 9.64096 23.427 9.63008 23.2029C9.6192 22.9788 9.66939 22.7556 9.77635 22.554L10.9304 20.3857H22.0696L23.2237 22.5541L23.2239 22.5544C23.3318 22.7556 23.3831 22.9788 23.3732 23.203C23.3633 23.4272 23.2926 23.6458 23.1672 23.8382Z" fill="#FF7502" stroke="#FF7502" stroke-width="0.2" stroke-linecap="round" stroke-linejoin="round"/>
<rect opacity="0.06" width="32" height="32" rx="10" fill="#FF7502"/>
</svg>
