<svg width="32" height="32" viewBox="0 0 32 32" fill="none" xmlns="http://www.w3.org/2000/svg">
<rect opacity="0.06" x="6.10352e-05" width="32" height="32" rx="10" fill="#00B25C"/>
<path d="M16.0157 11.4844C17.5782 11.4844 18.8438 10.2109 18.8438 8.64844C18.8438 7.07812 17.5782 5.82031 16.0157 5.82031C14.4532 5.82031 13.1797 7.07812 13.1797 8.64844C13.1797 10.2188 14.4376 11.4844 16.0157 11.4844ZM16.0157 9.75C15.4063 9.75 14.9063 9.25781 14.9063 8.64844C14.9063 8.04688 15.4063 7.54688 16.0157 7.54688C16.6172 7.54688 17.1172 8.04688 17.1172 8.64844C17.1172 9.25781 16.6172 9.75 16.0157 9.75ZM23.2891 14.0703C24.0938 14.0703 24.7579 13.4141 24.7579 12.6016C24.7579 11.7969 24.0938 11.1328 23.2891 11.1328C22.4844 11.1328 21.8204 11.7969 21.8204 12.6016C21.8204 13.4141 22.4844 14.0703 23.2891 14.0703ZM8.72662 14.0703C9.53131 14.0703 10.1954 13.4141 10.1954 12.6016C10.1954 11.7969 9.53131 11.1328 8.72662 11.1328C7.92975 11.1328 7.25787 11.8047 7.25787 12.6016C7.25787 13.4141 7.92194 14.0703 8.72662 14.0703ZM16.0079 17.8516C16.8126 17.8516 17.4766 17.1875 17.4766 16.3828C17.4766 15.5547 16.836 14.9141 16.0079 14.9141C15.2032 14.9141 14.5391 15.5781 14.5391 16.3828C14.5391 17.1875 15.2032 17.8516 16.0079 17.8516ZM9.32819 23.1641C10.8907 23.1641 12.1563 21.8906 12.1563 20.3281C12.1563 18.7656 10.8907 17.5 9.32819 17.5C7.76569 17.5 6.49225 18.7656 6.49225 20.3281C6.49225 21.8984 7.75787 23.1641 9.32819 23.1641ZM22.6797 23.1641C24.2422 23.1641 25.5079 21.8906 25.5079 20.3281C25.5079 18.7656 24.2422 17.5 22.6797 17.5C21.1172 17.5 19.8438 18.7656 19.8438 20.3281C19.8438 21.8984 21.1016 23.1641 22.6797 23.1641ZM9.32819 21.4375C8.71881 21.4375 8.21881 20.9375 8.21881 20.3281C8.21881 19.7266 8.71881 19.2266 9.32819 19.2266C9.92975 19.2266 10.4297 19.7266 10.4297 20.3281C10.4297 20.9375 9.92975 21.4375 9.32819 21.4375ZM22.6797 21.4375C22.0704 21.4375 21.5704 20.9375 21.5704 20.3281C21.5704 19.7266 22.0704 19.2266 22.6797 19.2266C23.2813 19.2266 23.7813 19.7266 23.7813 20.3281C23.7813 20.9375 23.2813 21.4375 22.6797 21.4375ZM16.0079 26.0156C16.8126 26.0156 17.4766 25.3594 17.4766 24.5547C17.4766 23.7422 16.8126 23.0859 16.0079 23.0859C15.2032 23.0859 14.5391 23.7422 14.5391 24.5547C14.5391 25.3594 15.2032 26.0156 16.0079 26.0156Z" fill="#00B25C"/>
</svg>
