<svg xmlns="http://www.w3.org/2000/svg" width="16" height="16" fill="none" viewBox="0 0 16 16"><circle cx="8" cy="8" r="8" fill="#1E6BFF"/><path fill="#fff" d="M8.48828 8.32422L10.5312 5.28516C10.6094 5.16797 10.6562 5.05859 10.6562 4.9375C10.6562 4.66406 10.4375 4.47266 10.1641 4.47266C9.90625 4.47266 9.78125 4.5625 9.625 4.79688L7.52344 7.96094L5.42188 11.0703C5.34766 11.1797 5.30078 11.2812 5.30078 11.4336C5.30078 11.7148 5.55078 11.8867 5.82031 11.8867C6.03516 11.8867 6.16406 11.8086 6.32031 11.5781L8.48828 8.32422ZM4.12109 6.46094C4.12109 6.71875 4.33203 6.92969 4.58984 6.92969H5.19531V7.53125C5.19531 7.79297 5.40625 8.00391 5.66406 8C5.92578 8 6.13281 7.79297 6.13281 7.53125V6.92969H6.73828C6.99609 6.92969 7.20703 6.71875 7.20703 6.46094C7.20703 6.20312 6.99609 5.99219 6.73828 5.99219H6.13281V5.38672C6.13281 5.125 5.92578 4.91797 5.66406 4.91797C5.40625 4.91797 5.19531 5.125 5.19531 5.38672V5.99219H4.58984C4.33203 5.99219 4.12109 6.20312 4.12109 6.46094ZM8.78906 10.1484C8.78906 10.4062 9 10.6172 9.25781 10.6172H11.4062C11.6641 10.6172 11.875 10.4062 11.875 10.1484C11.875 9.89062 11.6641 9.67969 11.4062 9.67969H9.25781C9 9.67969 8.78906 9.89062 8.78906 10.1484Z"/></svg>