<svg width="34" height="36" viewBox="0 0 34 36" fill="none" xmlns="http://www.w3.org/2000/svg">
<path d="M19.9062 7.9375C20.1562 7.9375 20.3125 7.76562 20.3438 7.53125C20.7656 4.96875 20.7656 4.95312 23.4062 4.46875C23.6719 4.42188 23.8281 4.26562 23.8281 4.03125C23.8281 3.78125 23.6719 3.625 23.4375 3.57812C20.7344 3.03125 20.7656 3.01562 20.3438 0.53125C20.3125 0.28125 20.1562 0.109375 19.9062 0.109375C19.6562 0.109375 19.5 0.28125 19.4688 0.515625C19.0156 3.09375 19.0625 3.125 16.3906 3.57812C16.1562 3.60938 15.9844 3.78125 15.9844 4.03125C15.9844 4.26562 16.1406 4.42188 16.375 4.46875C19.0625 5.01562 19.0469 5.01562 19.4688 7.54688C19.5 7.76562 19.6562 7.9375 19.9062 7.9375ZM15.2188 35.875C21.4062 35.875 26.7188 32.4531 29.1406 26.9688C29.6562 25.7969 29.5 24.875 28.9531 24.3594C28.4219 23.8594 27.5156 23.75 26.5781 24.1875C25.4062 24.7031 23.9062 24.9844 22.2656 24.9844C15.4062 24.9844 11.0469 20.8125 11.0469 14.125C11.0469 12.2969 11.4375 10.4688 11.9844 9.28125C12.4531 8.1875 12.3906 7.375 11.8906 6.8125C11.3594 6.20312 10.4219 6.10938 9.29688 6.5625C3.71875 8.8125 0.015625 14.4219 0.015625 20.75C0.015625 29.3906 6.35938 35.875 15.2188 35.875ZM27.4688 19.1094C27.8594 19.1094 28.1406 18.8438 28.1875 18.4375C28.6875 14.3594 28.8438 14.2188 33.0312 13.5781C33.4688 13.5156 33.7344 13.25 33.7344 12.8594C33.7344 12.4844 33.4688 12.2188 33.1094 12.1406C28.8438 11.2812 28.6875 11.3594 28.1875 7.29688C28.1406 6.89062 27.8594 6.625 27.4688 6.625C27.0938 6.625 26.8125 6.89062 26.7656 7.28125C26.2344 11.4531 26.125 11.5625 21.8438 12.1406C21.4844 12.2031 21.2188 12.4844 21.2188 12.8594C21.2188 13.2344 21.4688 13.5 21.8438 13.5781C26.1406 14.4531 26.2188 14.4062 26.7656 18.4688C26.8125 18.8438 27.0938 19.1094 27.4688 19.1094ZM15.2344 31.75C8.76562 31.75 4.125 27 4.125 20.6562C4.125 17.5156 5.42188 14.4688 7.625 12.3906C7.42188 13.0938 7.3125 14.0469 7.3125 14.9688C7.3125 23.2812 12.8281 28.7031 21.3281 28.7031C22.0625 28.7031 22.75 28.6094 23.1406 28.5C21.2656 30.5625 18.3281 31.75 15.2344 31.75Z" fill="#B935F3"/>
</svg>
