<svg width="38" height="38" viewBox="0 0 38 38" fill="none" xmlns="http://www.w3.org/2000/svg">
<path d="M20.9844 2.26562C20.9844 1.20312 20.0781 0.28125 19 0.28125C17.9219 0.28125 17.0156 1.20312 17.0156 2.26562V5.25C17.0156 6.32812 17.9219 7.23438 19 7.23438C20.0781 7.23438 20.9844 6.32812 20.9844 5.25V2.26562ZM27.0469 7.84375C26.3125 8.57812 26.3281 9.875 27.0781 10.6406C27.8281 11.3906 29.125 11.375 29.8906 10.6094L32 8.48438C32.7344 7.75 32.7188 6.45312 31.9688 5.6875C31.2188 4.9375 29.9219 4.95312 29.1719 5.71875L27.0469 7.84375ZM8.10938 10.6094C8.85938 11.375 10.1562 11.3906 10.9062 10.6406C11.6562 9.89062 11.6719 8.57812 10.9375 7.84375L8.82812 5.71875C8.07812 4.96875 6.78125 4.9375 6.04688 5.6875C5.28125 6.4375 5.26562 7.75 6 8.48438L8.10938 10.6094ZM19 9.95312C14.2188 9.95312 10.2969 13.875 10.2969 18.6562C10.2969 23.4375 14.2188 27.3594 19 27.3594C23.7656 27.3594 27.6875 23.4375 27.6875 18.6562C27.6875 13.875 23.7656 9.95312 19 9.95312ZM19 13.8906C21.5938 13.8906 23.75 16.0625 23.75 18.6562C23.75 21.25 21.5938 23.4219 19 23.4219C16.4062 23.4219 14.2344 21.25 14.2344 18.6562C14.2344 16.0625 16.4062 13.8906 19 13.8906ZM35.3906 20.6406C36.4688 20.6406 37.375 19.7344 37.375 18.6562C37.375 17.5781 36.4688 16.6719 35.3906 16.6719H32.4219C31.3438 16.6719 30.4375 17.5781 30.4375 18.6562C30.4375 19.7344 31.3438 20.6406 32.4219 20.6406H35.3906ZM2.60938 16.6719C1.53125 16.6719 0.625 17.5781 0.625 18.6562C0.625 19.7344 1.53125 20.6406 2.60938 20.6406H5.57812C6.65625 20.6406 7.57812 19.7344 7.57812 18.6562C7.57812 17.5781 6.65625 16.6719 5.57812 16.6719H2.60938ZM29.8594 26.6875C29.1094 25.9531 27.8125 25.9531 27.0469 26.7188C26.3125 27.4688 26.3281 28.75 27.0781 29.5156L29.2188 31.625C29.9531 32.375 31.25 32.3594 32.0156 31.5938C32.75 30.8438 32.75 29.5469 31.9844 28.7969L29.8594 26.6875ZM6.01562 28.7969C5.25 29.5469 5.23438 30.8438 5.96875 31.5781C6.73438 32.3438 8.03125 32.3594 8.78125 31.625L10.9062 29.5156C11.6562 28.75 11.6719 27.4688 10.9375 26.7188C10.1719 25.9531 8.875 25.9531 8.125 26.6875L6.01562 28.7969ZM20.9844 32.0625C20.9844 30.9844 20.0781 30.0781 19 30.0781C17.9219 30.0781 17.0156 30.9844 17.0156 32.0625V35.0469C17.0156 36.1094 17.9219 37.0312 19 37.0312C20.0781 37.0312 20.9844 36.1094 20.9844 35.0469V32.0625Z" fill="#FF7502"/>
</svg>
