<svg xmlns="http://www.w3.org/2000/svg" width="42" height="35" fill="none" viewBox="0 0 42 35"><path fill="#B935F3" d="M21 13.8281C21.875 13.8281 22.6094 13.0625 22.6094 12.1406L22.5938 7.21875L22.3125 4.54688L23.3438 6L24.8125 7.625C25.1406 8 25.5312 8.28125 26.0625 8.28125C26.9219 8.28125 27.5469 7.64062 27.5469 6.84375C27.5469 6.34375 27.2656 5.9375 26.875 5.5625L22.1875 1.125C21.7812 0.734375 21.4375 0.59375 21 0.59375C20.5469 0.59375 20.2031 0.734375 19.7969 1.125L15.1094 5.5625C14.7188 5.9375 14.4375 6.34375 14.4375 6.84375C14.4375 7.64062 15.0625 8.28125 15.9219 8.28125C16.4531 8.28125 16.8438 8 17.1719 7.625L18.7188 5.92188L19.6719 4.54688L19.3906 7.21875L19.375 12.1406C19.375 13.0625 20.1094 13.8281 21 13.8281ZM29.0781 17.8125C29.7188 18.4219 30.7656 18.4062 31.4375 17.75L33.7031 15.5C34.375 14.8281 34.3594 13.7812 33.7344 13.1562C33.125 12.5156 32.0781 12.5312 31.4062 13.2031L29.1406 15.4531C28.4688 16.125 28.4531 17.1875 29.0781 17.8125ZM12.9062 17.8125C13.5312 17.1719 13.5156 16.125 12.8594 15.4531L10.5938 13.2031C9.92188 12.5312 8.875 12.5312 8.25 13.1562C7.625 13.7656 7.625 14.8281 8.29688 15.5L10.5625 17.75C11.2344 18.4062 12.2812 18.4375 12.9062 17.8125ZM2.90625 34.1562H39.0781C40.1562 34.1562 41.0156 33.25 41.0156 32.2188C41.0156 31.1562 40.1562 30.2812 39.0781 30.2812H28.2656C29.1406 29.0156 29.5781 27.4844 29.5781 25.8906C29.5781 21.125 25.7188 17.2656 21 17.2656C16.2812 17.2656 12.4219 21.125 12.4219 25.8906C12.4219 27.4844 12.8594 29.0156 13.7188 30.2812H2.90625C1.82812 30.2812 0.96875 31.1875 0.96875 32.2188C0.96875 33.2344 1.84375 34.1562 2.90625 34.1562ZM15.9062 25.9062C15.9062 23.0469 18.2031 20.7656 21 20.7656C23.7969 20.7656 26.0938 23.0469 26.0938 25.9062C26.0938 27.7188 25.1719 29.3281 23.8906 30.2812H18.1094C16.8281 29.3281 15.9062 27.7188 15.9062 25.9062ZM4.67188 26.5H7.85938C8.8125 26.5 9.5625 25.7656 9.5625 24.875C9.54688 23.9844 8.8125 23.2656 7.85938 23.2656H4.67188C3.71875 23.2656 2.96875 23.9844 2.96875 24.875C2.96875 25.7656 3.73438 26.5 4.67188 26.5ZM34.1406 26.5H37.3281C38.2812 26.5 39.0312 25.7656 39.0312 24.875C39.0312 23.9844 38.2812 23.2656 37.3281 23.2656H34.1406C33.2031 23.2656 32.4219 23.9844 32.4375 24.875C32.4375 25.7656 33.2031 26.5 34.1406 26.5Z"/></svg>