<svg width="18" height="17" viewBox="0 0 18 17" fill="none" xmlns="http://www.w3.org/2000/svg">
<path d="M0.617188 6.21094C0.617188 9.58594 3.46875 12.9609 7.6875 15.7656C8.17188 16.0938 8.67188 16.3984 9 16.3984C9.32812 16.3984 9.82812 16.0938 10.3125 15.7656C14.5312 12.9609 17.3828 9.58594 17.3828 6.21094C17.3828 2.9375 15.0781 0.796875 12.4375 0.796875C10.8125 0.796875 9.67188 1.46875 9 2.41406C8.33594 1.46875 7.1875 0.796875 5.5625 0.796875C2.92188 0.796875 0.617188 2.9375 0.617188 6.21094ZM3.35156 6.17969C3.35156 4.55469 4.50781 3.40625 6.01562 3.40625C7.21094 3.40625 7.82812 4.04688 8.29688 4.66406C8.51562 4.98438 8.72656 5.14844 9 5.14844C9.27344 5.14844 9.46094 4.98438 9.70312 4.66406C10.1875 4.03906 10.7891 3.40625 11.9844 3.40625C13.4922 3.40625 14.6484 4.55469 14.6484 6.17969C14.6484 8.42188 12.4688 11.1797 9.09375 13.4297C9.05469 13.4531 9.03125 13.4688 9 13.4688C8.96875 13.4688 8.94531 13.4531 8.90625 13.4297C5.53125 11.1797 3.35156 8.42188 3.35156 6.17969Z" fill="#FF0073"/>
</svg>
