<svg width="24" height="17" viewBox="0 0 24 17" fill="none" xmlns="http://www.w3.org/2000/svg">
<path d="M19.2109 16.0469H20.6328C22.2969 16.0469 23.3594 15.0234 23.3594 13.4375V3.35156C23.3594 1.75781 22.2969 0.742188 20.6328 0.742188H19.2109C17.5469 0.742188 16.4844 1.75781 16.4844 3.35938V13.4375C16.4844 15.0234 17.5469 16.0469 19.2109 16.0469ZM19.5859 13.8984C19.1172 13.8984 18.8438 13.625 18.8438 13.1562V3.625C18.8438 3.16406 19.1172 2.89062 19.5859 2.89062H20.2578C20.7266 2.89062 21 3.16406 21 3.625V13.1562C21 13.625 20.7266 13.8984 20.25 13.8984H19.5859ZM11.2812 16.0469H12.7109C14.3672 16.0469 15.4297 15.0234 15.4297 13.4375V5.61719C15.4297 4.03125 14.3672 3.00781 12.7109 3.00781H11.2812C9.625 3.00781 8.5625 4.03125 8.5625 5.625V13.4375C8.5625 15.0234 9.625 16.0469 11.2812 16.0469ZM11.6641 13.8984C11.1875 13.8984 10.9141 13.625 10.9141 13.1562V5.89062C10.9141 5.42969 11.1875 5.15625 11.6641 5.15625H12.3281C12.8047 5.15625 13.0781 5.42969 13.0781 5.89062V13.1562C13.0781 13.625 12.8047 13.8984 12.3203 13.8984H11.6641ZM3.35156 16.0469H4.78125C6.44531 16.0469 7.50781 15.0234 7.50781 13.4375V7.92969C7.50781 6.33594 6.44531 5.32031 4.78125 5.32031H3.35156C1.69531 5.32031 0.632812 6.33594 0.632812 7.9375V13.4375C0.632812 15.0234 1.69531 16.0469 3.35156 16.0469ZM3.73438 13.8984C3.26562 13.8984 2.99219 13.625 2.99219 13.1562V8.20312C2.99219 7.74219 3.26562 7.46875 3.73438 7.46875H4.40625C4.875 7.46875 5.14844 7.74219 5.14844 8.20312V13.1562C5.14844 13.625 4.875 13.8984 4.39844 13.8984H3.73438Z" fill="#1E6BFF"/>
</svg>
