<svg xmlns="http://www.w3.org/2000/svg" width="24" height="12" fill="none" viewBox="0 0 24 12"><path fill="#00A396" d="M23.4062 6.35938C23.4062 3.11719 21.2812 0.960938 18.1016 0.960938C16.5391 0.960938 15.125 1.58594 13.7031 2.98438L12 4.64844L10.2969 2.98438C8.86719 1.58594 7.45312 0.960938 5.89844 0.960938C2.71094 0.960938 0.585938 3.11719 0.585938 6.35938C0.585938 9.60156 2.71094 11.7578 5.89844 11.7578C7.45312 11.7578 8.86719 11.1328 10.2969 9.73438L12 8.07031L13.7031 9.73438C15.125 11.1328 16.5391 11.7578 18.1016 11.7578C21.2812 11.7578 23.4062 9.60156 23.4062 6.35938ZM10.2422 6.35938L8.57031 7.96094C7.60156 8.89062 6.75781 9.28906 5.89844 9.28906C4.19531 9.28906 3.05469 8.125 3.05469 6.35938C3.05469 4.59375 4.19531 3.42969 5.89844 3.42969C6.75781 3.42969 7.60156 3.82031 8.57031 4.75L10.2422 6.35938ZM13.75 6.35938L15.4297 4.75C16.3906 3.82031 17.2344 3.42969 18.1016 3.42969C19.7969 3.42969 20.9375 4.59375 20.9375 6.35938C20.9375 8.125 19.7969 9.28906 18.1016 9.28906C17.2344 9.28906 16.3906 8.89062 15.4297 7.96094L13.75 6.35938Z"/></svg>