<svg xmlns="http://www.w3.org/2000/svg" width="274" height="18" fill="none" viewBox="0 0 274 18"><path fill="#737373" d="M9.11025 1.832V3.64H6.13425V13H3.89425V3.64H0.91825V1.832H9.11025ZM15.7366 4.008C16.4086 4.008 17.006 4.15733 17.5286 4.456C18.0513 4.744 18.4566 5.176 18.7446 5.752C19.0433 6.31733 19.1926 7 19.1926 7.8V13H16.9526V8.104C16.9526 7.4 16.7766 6.86133 16.4246 6.488C16.0726 6.104 15.5926 5.912 14.9846 5.912C14.366 5.912 13.8753 6.104 13.5126 6.488C13.1606 6.86133 12.9846 7.4 12.9846 8.104V13H10.7446V1.16H12.9846V5.24C13.2726 4.856 13.6566 4.55733 14.1366 4.344C14.6166 4.12 15.15 4.008 15.7366 4.008ZM29.5628 8.376C29.5628 8.696 29.5414 8.984 29.4988 9.24H23.0188C23.0721 9.88 23.2961 10.3813 23.6908 10.744C24.0854 11.1067 24.5708 11.288 25.1468 11.288C25.9788 11.288 26.5708 10.9307 26.9228 10.216H29.3388C29.0828 11.0693 28.5921 11.7733 27.8668 12.328C27.1414 12.872 26.2508 13.144 25.1948 13.144C24.3414 13.144 23.5734 12.9573 22.8908 12.584C22.2188 12.2 21.6908 11.6613 21.3068 10.968C20.9334 10.2747 20.7467 9.47467 20.7467 8.568C20.7467 7.65067 20.9334 6.84533 21.3068 6.152C21.6801 5.45867 22.2028 4.92533 22.8748 4.552C23.5468 4.17867 24.3201 3.992 25.1948 3.992C26.0374 3.992 26.7894 4.17333 27.4508 4.536C28.1228 4.89867 28.6401 5.416 29.0028 6.088C29.3761 6.74933 29.5628 7.512 29.5628 8.376ZM27.2428 7.736C27.2321 7.16 27.0241 6.70133 26.6188 6.36C26.2134 6.008 25.7174 5.832 25.1308 5.832C24.5761 5.832 24.1068 6.00267 23.7228 6.344C23.3494 6.67467 23.1201 7.13867 23.0348 7.736H27.2428ZM37.2503 5.416C37.5383 5.01067 37.9329 4.67467 38.4343 4.408C38.9463 4.13067 39.5276 3.992 40.1783 3.992C40.9356 3.992 41.6183 4.17867 42.2263 4.552C42.8449 4.92533 43.3303 5.45867 43.6823 6.152C44.0449 6.83467 44.2263 7.62933 44.2263 8.536C44.2263 9.44267 44.0449 10.248 43.6823 10.952C43.3303 11.6453 42.8449 12.184 42.2263 12.568C41.6183 12.952 40.9356 13.144 40.1783 13.144C39.5276 13.144 38.9516 13.0107 38.4503 12.744C37.9596 12.4773 37.5596 12.1413 37.2503 11.736V17.224H35.0103V4.136H37.2503V5.416ZM41.9383 8.536C41.9383 8.00267 41.8263 7.544 41.6023 7.16C41.3889 6.76533 41.1009 6.46667 40.7383 6.264C40.3863 6.06133 40.0023 5.96 39.5863 5.96C39.1809 5.96 38.7969 6.06667 38.4343 6.28C38.0823 6.48267 37.7943 6.78133 37.5703 7.176C37.3569 7.57067 37.2503 8.03467 37.2503 8.568C37.2503 9.10133 37.3569 9.56533 37.5703 9.96C37.7943 10.3547 38.0823 10.6587 38.4343 10.872C38.7969 11.0747 39.1809 11.176 39.5863 11.176C40.0023 11.176 40.3863 11.0693 40.7383 10.856C41.1009 10.6427 41.3889 10.3387 41.6023 9.944C41.8263 9.54933 41.9383 9.08 41.9383 8.536ZM49.79 13.144C48.9367 13.144 48.1687 12.9573 47.486 12.584C46.8033 12.2 46.2647 11.6613 45.87 10.968C45.486 10.2747 45.294 9.47467 45.294 8.568C45.294 7.66133 45.4913 6.86133 45.886 6.168C46.2913 5.47467 46.8407 4.94133 47.534 4.568C48.2273 4.184 49.0007 3.992 49.854 3.992C50.7073 3.992 51.4807 4.184 52.174 4.568C52.8673 4.94133 53.4113 5.47467 53.806 6.168C54.2113 6.86133 54.414 7.66133 54.414 8.568C54.414 9.47467 54.206 10.2747 53.79 10.968C53.3847 11.6613 52.83 12.2 52.126 12.584C51.4327 12.9573 50.654 13.144 49.79 13.144ZM49.79 11.192C50.1953 11.192 50.574 11.096 50.926 10.904C51.2887 10.7013 51.5767 10.4027 51.79 10.008C52.0033 9.61333 52.11 9.13333 52.11 8.568C52.11 7.72533 51.886 7.08 51.438 6.632C51.0007 6.17333 50.462 5.944 49.822 5.944C49.182 5.944 48.6433 6.17333 48.206 6.632C47.7793 7.08 47.566 7.72533 47.566 8.568C47.566 9.41067 47.774 10.0613 48.19 10.52C48.6167 10.968 49.15 11.192 49.79 11.192ZM59.9931 13.144C59.1398 13.144 58.3718 12.9573 57.6891 12.584C57.0065 12.2 56.4678 11.6613 56.0731 10.968C55.6891 10.2747 55.4971 9.47467 55.4971 8.568C55.4971 7.66133 55.6945 6.86133 56.0891 6.168C56.4945 5.47467 57.0438 4.94133 57.7371 4.568C58.4305 4.184 59.2038 3.992 60.0571 3.992C60.9105 3.992 61.6838 4.184 62.3771 4.568C63.0705 4.94133 63.6145 5.47467 64.0091 6.168C64.4145 6.86133 64.6171 7.66133 64.6171 8.568C64.6171 9.47467 64.4091 10.2747 63.9931 10.968C63.5878 11.6613 63.0331 12.2 62.3291 12.584C61.6358 12.9573 60.8571 13.144 59.9931 13.144ZM59.9931 11.192C60.3985 11.192 60.7771 11.096 61.1291 10.904C61.4918 10.7013 61.7798 10.4027 61.9931 10.008C62.2065 9.61333 62.3131 9.13333 62.3131 8.568C62.3131 7.72533 62.0891 7.08 61.6411 6.632C61.2038 6.17333 60.6651 5.944 60.0251 5.944C59.3851 5.944 58.8465 6.17333 58.4091 6.632C57.9825 7.08 57.7691 7.72533 57.7691 8.568C57.7691 9.41067 57.9771 10.0613 58.3931 10.52C58.8198 10.968 59.3531 11.192 59.9931 11.192ZM68.5003 1.16V13H66.2603V1.16H68.5003ZM73.9499 8.568C73.9499 7.65067 74.1365 6.85067 74.5099 6.168C74.8832 5.47467 75.4005 4.94133 76.0619 4.568C76.7232 4.184 77.4805 3.992 78.3339 3.992C79.4325 3.992 80.3392 4.26933 81.0539 4.824C81.7792 5.368 82.2645 6.136 82.5099 7.128H80.0939C79.9659 6.744 79.7472 6.44533 79.4379 6.232C79.1392 6.008 78.7659 5.896 78.3179 5.896C77.6779 5.896 77.1712 6.13067 76.7979 6.6C76.4245 7.05867 76.2379 7.71467 76.2379 8.568C76.2379 9.41067 76.4245 10.0667 76.7979 10.536C77.1712 10.9947 77.6779 11.224 78.3179 11.224C79.2245 11.224 79.8165 10.8187 80.0939 10.008H82.5099C82.2645 10.968 81.7792 11.7307 81.0539 12.296C80.3285 12.8613 79.4219 13.144 78.3339 13.144C77.4805 13.144 76.7232 12.9573 76.0619 12.584C75.4005 12.2 74.8832 11.6667 74.5099 10.984C74.1365 10.2907 73.9499 9.48533 73.9499 8.568ZM83.5749 8.536C83.5749 7.64 83.7509 6.84533 84.1029 6.152C84.4655 5.45867 84.9509 4.92533 85.5589 4.552C86.1775 4.17867 86.8655 3.992 87.6229 3.992C88.2842 3.992 88.8602 4.12533 89.3509 4.392C89.8522 4.65867 90.2522 4.99467 90.5509 5.4V4.136H92.8069V13H90.5509V11.704C90.2629 12.12 89.8629 12.4667 89.3509 12.744C88.8495 13.0107 88.2682 13.144 87.6069 13.144C86.8602 13.144 86.1775 12.952 85.5589 12.568C84.9509 12.184 84.4655 11.6453 84.1029 10.952C83.7509 10.248 83.5749 9.44267 83.5749 8.536ZM90.5509 8.568C90.5509 8.024 90.4442 7.56 90.2309 7.176C90.0175 6.78133 89.7295 6.48267 89.3669 6.28C89.0042 6.06667 88.6149 5.96 88.1989 5.96C87.7829 5.96 87.3989 6.06133 87.0469 6.264C86.6949 6.46667 86.4069 6.76533 86.1829 7.16C85.9695 7.544 85.8629 8.00267 85.8629 8.536C85.8629 9.06933 85.9695 9.53867 86.1829 9.944C86.4069 10.3387 86.6949 10.6427 87.0469 10.856C87.4095 11.0693 87.7935 11.176 88.1989 11.176C88.6149 11.176 89.0042 11.0747 89.3669 10.872C89.7295 10.6587 90.0175 10.36 90.2309 9.976C90.4442 9.58133 90.5509 9.112 90.5509 8.568ZM97.2346 1.16V13H94.9946V1.16H97.2346ZM98.8717 8.568C98.8717 7.65067 99.0584 6.85067 99.4318 6.168C99.8051 5.47467 100.322 4.94133 100.984 4.568C101.645 4.184 102.402 3.992 103.256 3.992C104.354 3.992 105.261 4.26933 105.976 4.824C106.701 5.368 107.186 6.136 107.432 7.128H105.016C104.888 6.744 104.669 6.44533 104.36 6.232C104.061 6.008 103.688 5.896 103.24 5.896C102.6 5.896 102.093 6.13067 101.72 6.6C101.346 7.05867 101.16 7.71467 101.16 8.568C101.16 9.41067 101.346 10.0667 101.72 10.536C102.093 10.9947 102.6 11.224 103.24 11.224C104.146 11.224 104.738 10.8187 105.016 10.008H107.432C107.186 10.968 106.701 11.7307 105.976 12.296C105.25 12.8613 104.344 13.144 103.256 13.144C102.402 13.144 101.645 12.9573 100.984 12.584C100.322 12.2 99.8051 11.6667 99.4318 10.984C99.0584 10.2907 98.8717 9.48533 98.8717 8.568ZM117.441 4.136V13H115.185V11.88C114.897 12.264 114.518 12.568 114.049 12.792C113.59 13.0053 113.089 13.112 112.545 13.112C111.851 13.112 111.238 12.968 110.705 12.68C110.171 12.3813 109.75 11.9493 109.441 11.384C109.142 10.808 108.993 10.1253 108.993 9.336V4.136H111.233V9.016C111.233 9.72 111.409 10.264 111.761 10.648C112.113 11.0213 112.593 11.208 113.201 11.208C113.819 11.208 114.305 11.0213 114.657 10.648C115.009 10.264 115.185 9.72 115.185 9.016V4.136H117.441ZM121.891 1.16V13H119.651V1.16H121.891ZM123.528 8.536C123.528 7.64 123.704 6.84533 124.056 6.152C124.419 5.45867 124.904 4.92533 125.512 4.552C126.131 4.17867 126.819 3.992 127.576 3.992C128.237 3.992 128.813 4.12533 129.304 4.392C129.805 4.65867 130.205 4.99467 130.504 5.4V4.136H132.76V13H130.504V11.704C130.216 12.12 129.816 12.4667 129.304 12.744C128.803 13.0107 128.221 13.144 127.56 13.144C126.813 13.144 126.131 12.952 125.512 12.568C124.904 12.184 124.419 11.6453 124.056 10.952C123.704 10.248 123.528 9.44267 123.528 8.536ZM130.504 8.568C130.504 8.024 130.397 7.56 130.184 7.176C129.971 6.78133 129.683 6.48267 129.32 6.28C128.957 6.06667 128.568 5.96 128.152 5.96C127.736 5.96 127.352 6.06133 127 6.264C126.648 6.46667 126.36 6.76533 126.136 7.16C125.923 7.544 125.816 8.00267 125.816 8.536C125.816 9.06933 125.923 9.53867 126.136 9.944C126.36 10.3387 126.648 10.6427 127 10.856C127.363 11.0693 127.747 11.176 128.152 11.176C128.568 11.176 128.957 11.0747 129.32 10.872C129.683 10.6587 129.971 10.36 130.184 9.976C130.397 9.58133 130.504 9.112 130.504 8.568ZM137.556 5.976V10.264C137.556 10.5627 137.625 10.7813 137.764 10.92C137.913 11.048 138.158 11.112 138.5 11.112H139.54V13H138.132C136.244 13 135.3 12.0827 135.3 10.248V5.976H134.244V4.136H135.3V1.944H137.556V4.136H139.54V5.976H137.556ZM145.087 13.144C144.234 13.144 143.466 12.9573 142.783 12.584C142.1 12.2 141.562 11.6613 141.167 10.968C140.783 10.2747 140.591 9.47467 140.591 8.568C140.591 7.66133 140.788 6.86133 141.183 6.168C141.588 5.47467 142.138 4.94133 142.831 4.568C143.524 4.184 144.298 3.992 145.151 3.992C146.004 3.992 146.778 4.184 147.471 4.568C148.164 4.94133 148.708 5.47467 149.103 6.168C149.508 6.86133 149.711 7.66133 149.711 8.568C149.711 9.47467 149.503 10.2747 149.087 10.968C148.682 11.6613 148.127 12.2 147.423 12.584C146.73 12.9573 145.951 13.144 145.087 13.144ZM145.087 11.192C145.492 11.192 145.871 11.096 146.223 10.904C146.586 10.7013 146.874 10.4027 147.087 10.008C147.3 9.61333 147.407 9.13333 147.407 8.568C147.407 7.72533 147.183 7.08 146.735 6.632C146.298 6.17333 145.759 5.944 145.119 5.944C144.479 5.944 143.94 6.17333 143.503 6.632C143.076 7.08 142.863 7.72533 142.863 8.568C142.863 9.41067 143.071 10.0613 143.487 10.52C143.914 10.968 144.447 11.192 145.087 11.192ZM153.594 5.512C153.882 5.04267 154.255 4.67467 154.714 4.408C155.183 4.14133 155.717 4.008 156.314 4.008V6.36H155.722C155.018 6.36 154.485 6.52533 154.122 6.856C153.77 7.18667 153.594 7.76267 153.594 8.584V13H151.354V4.136H153.594V5.512ZM165.699 5.976H164.147V13H161.875V5.976H160.867V4.136H161.875V3.688C161.875 2.6 162.185 1.8 162.803 1.288C163.422 0.775999 164.355 0.536 165.603 0.568V2.456C165.059 2.44533 164.681 2.536 164.467 2.728C164.254 2.92 164.147 3.26667 164.147 3.768V4.136H165.699V5.976ZM171.087 13.144C170.234 13.144 169.466 12.9573 168.783 12.584C168.1 12.2 167.562 11.6613 167.167 10.968C166.783 10.2747 166.591 9.47467 166.591 8.568C166.591 7.66133 166.788 6.86133 167.183 6.168C167.588 5.47467 168.138 4.94133 168.831 4.568C169.524 4.184 170.298 3.992 171.151 3.992C172.004 3.992 172.778 4.184 173.471 4.568C174.164 4.94133 174.708 5.47467 175.103 6.168C175.508 6.86133 175.711 7.66133 175.711 8.568C175.711 9.47467 175.503 10.2747 175.087 10.968C174.682 11.6613 174.127 12.2 173.423 12.584C172.73 12.9573 171.951 13.144 171.087 13.144ZM171.087 11.192C171.492 11.192 171.871 11.096 172.223 10.904C172.586 10.7013 172.874 10.4027 173.087 10.008C173.3 9.61333 173.407 9.13333 173.407 8.568C173.407 7.72533 173.183 7.08 172.735 6.632C172.298 6.17333 171.759 5.944 171.119 5.944C170.479 5.944 169.94 6.17333 169.503 6.632C169.076 7.08 168.863 7.72533 168.863 8.568C168.863 9.41067 169.071 10.0613 169.487 10.52C169.914 10.968 170.447 11.192 171.087 11.192ZM179.594 5.512C179.882 5.04267 180.255 4.67467 180.714 4.408C181.183 4.14133 181.717 4.008 182.314 4.008V6.36H181.722C181.018 6.36 180.485 6.52533 180.122 6.856C179.77 7.18667 179.594 7.76267 179.594 8.584V13H177.354V4.136H179.594V5.512ZM195.875 8.376C195.875 8.696 195.854 8.984 195.811 9.24H189.331C189.385 9.88 189.609 10.3813 190.003 10.744C190.398 11.1067 190.883 11.288 191.459 11.288C192.291 11.288 192.883 10.9307 193.235 10.216H195.651C195.395 11.0693 194.905 11.7733 194.179 12.328C193.454 12.872 192.563 13.144 191.507 13.144C190.654 13.144 189.886 12.9573 189.203 12.584C188.531 12.2 188.003 11.6613 187.619 10.968C187.246 10.2747 187.059 9.47467 187.059 8.568C187.059 7.65067 187.246 6.84533 187.619 6.152C187.993 5.45867 188.515 4.92533 189.187 4.552C189.859 4.17867 190.633 3.992 191.507 3.992C192.35 3.992 193.102 4.17333 193.763 4.536C194.435 4.89867 194.953 5.416 195.315 6.088C195.689 6.74933 195.875 7.512 195.875 8.376ZM193.555 7.736C193.545 7.16 193.337 6.70133 192.931 6.36C192.526 6.008 192.03 5.832 191.443 5.832C190.889 5.832 190.419 6.00267 190.035 6.344C189.662 6.67467 189.433 7.13867 189.347 7.736H193.555ZM201.206 10.936L203.446 4.136H205.83L202.55 13H199.83L196.566 4.136H198.966L201.206 10.936ZM215.328 8.376C215.328 8.696 215.307 8.984 215.264 9.24H208.784C208.838 9.88 209.062 10.3813 209.456 10.744C209.851 11.1067 210.336 11.288 210.912 11.288C211.744 11.288 212.336 10.9307 212.688 10.216H215.104C214.848 11.0693 214.358 11.7733 213.632 12.328C212.907 12.872 212.016 13.144 210.96 13.144C210.107 13.144 209.339 12.9573 208.656 12.584C207.984 12.2 207.456 11.6613 207.072 10.968C206.699 10.2747 206.512 9.47467 206.512 8.568C206.512 7.65067 206.699 6.84533 207.072 6.152C207.446 5.45867 207.968 4.92533 208.64 4.552C209.312 4.17867 210.086 3.992 210.96 3.992C211.803 3.992 212.555 4.17333 213.216 4.536C213.888 4.89867 214.406 5.416 214.768 6.088C215.142 6.74933 215.328 7.512 215.328 8.376ZM213.008 7.736C212.998 7.16 212.79 6.70133 212.384 6.36C211.979 6.008 211.483 5.832 210.896 5.832C210.342 5.832 209.872 6.00267 209.488 6.344C209.115 6.67467 208.886 7.13867 208.8 7.736H213.008ZM219.203 5.512C219.491 5.04267 219.865 4.67467 220.323 4.408C220.793 4.14133 221.326 4.008 221.923 4.008V6.36H221.331C220.627 6.36 220.094 6.52533 219.731 6.856C219.379 7.18667 219.203 7.76267 219.203 8.584V13H216.963V4.136H219.203V5.512ZM231.912 4.136L226.424 17.192H224.04L225.96 12.776L222.408 4.136H224.92L227.208 10.328L229.528 4.136H231.912ZM235.36 5.432C235.648 5.00533 236.042 4.65867 236.544 4.392C237.056 4.12533 237.637 3.992 238.288 3.992C239.045 3.992 239.728 4.17867 240.336 4.552C240.954 4.92533 241.44 5.45867 241.792 6.152C242.154 6.83467 242.336 7.62933 242.336 8.536C242.336 9.44267 242.154 10.248 241.792 10.952C241.44 11.6453 240.954 12.184 240.336 12.568C239.728 12.952 239.045 13.144 238.288 13.144C237.626 13.144 237.045 13.016 236.544 12.76C236.053 12.4933 235.658 12.152 235.36 11.736V13H233.12V1.16H235.36V5.432ZM240.048 8.536C240.048 8.00267 239.936 7.544 239.712 7.16C239.498 6.76533 239.21 6.46667 238.848 6.264C238.496 6.06133 238.112 5.96 237.696 5.96C237.29 5.96 236.906 6.06667 236.544 6.28C236.192 6.48267 235.904 6.78133 235.68 7.176C235.466 7.57067 235.36 8.03467 235.36 8.568C235.36 9.10133 235.466 9.56533 235.68 9.96C235.904 10.3547 236.192 10.6587 236.544 10.872C236.906 11.0747 237.29 11.176 237.696 11.176C238.112 11.176 238.496 11.0693 238.848 10.856C239.21 10.6427 239.498 10.3387 239.712 9.944C239.936 9.54933 240.048 9.08 240.048 8.536ZM247.899 13.144C247.046 13.144 246.278 12.9573 245.595 12.584C244.913 12.2 244.374 11.6613 243.979 10.968C243.595 10.2747 243.403 9.47467 243.403 8.568C243.403 7.66133 243.601 6.86133 243.995 6.168C244.401 5.47467 244.95 4.94133 245.643 4.568C246.337 4.184 247.11 3.992 247.963 3.992C248.817 3.992 249.59 4.184 250.283 4.568C250.977 4.94133 251.521 5.47467 251.915 6.168C252.321 6.86133 252.523 7.66133 252.523 8.568C252.523 9.47467 252.315 10.2747 251.899 10.968C251.494 11.6613 250.939 12.2 250.235 12.584C249.542 12.9573 248.763 13.144 247.899 13.144ZM247.899 11.192C248.305 11.192 248.683 11.096 249.035 10.904C249.398 10.7013 249.686 10.4027 249.899 10.008C250.113 9.61333 250.219 9.13333 250.219 8.568C250.219 7.72533 249.995 7.08 249.547 6.632C249.11 6.17333 248.571 5.944 247.931 5.944C247.291 5.944 246.753 6.17333 246.315 6.632C245.889 7.08 245.675 7.72533 245.675 8.568C245.675 9.41067 245.883 10.0613 246.299 10.52C246.726 10.968 247.259 11.192 247.899 11.192ZM253.59 8.536C253.59 7.64 253.766 6.84533 254.118 6.152C254.481 5.45867 254.972 4.92533 255.591 4.552C256.209 4.17867 256.897 3.992 257.655 3.992C258.231 3.992 258.78 4.12 259.303 4.376C259.825 4.62133 260.241 4.952 260.551 5.368V1.16H262.823V13H260.551V11.688C260.273 12.1253 259.884 12.4773 259.383 12.744C258.881 13.0107 258.3 13.144 257.639 13.144C256.892 13.144 256.209 12.952 255.591 12.568C254.972 12.184 254.481 11.6453 254.118 10.952C253.766 10.248 253.59 9.44267 253.59 8.536ZM260.567 8.568C260.567 8.024 260.46 7.56 260.247 7.176C260.033 6.78133 259.745 6.48267 259.383 6.28C259.02 6.06667 258.631 5.96 258.215 5.96C257.799 5.96 257.415 6.06133 257.062 6.264C256.711 6.46667 256.423 6.76533 256.199 7.16C255.985 7.544 255.879 8.00267 255.879 8.536C255.879 9.06933 255.985 9.53867 256.199 9.944C256.423 10.3387 256.711 10.6427 257.062 10.856C257.425 11.0693 257.809 11.176 258.215 11.176C258.631 11.176 259.02 11.0747 259.383 10.872C259.745 10.6587 260.033 10.36 260.247 9.976C260.46 9.58133 260.567 9.112 260.567 8.568ZM273.49 4.136L268.002 17.192H265.618L267.538 12.776L263.986 4.136H266.498L268.786 10.328L271.106 4.136H273.49Z"/></svg>