<svg width="374" height="176" viewBox="0 0 374 176" fill="none" xmlns="http://www.w3.org/2000/svg">
<mask id="mask0" mask-type="alpha" maskUnits="userSpaceOnUse" x="0" y="0" width="375" height="176">
<rect width="375" height="176" transform="matrix(-1 0 0 1 375 0)" fill="#C4C4C4"/>
</mask>
<g mask="url(#mask0)">
<path d="M-7.55664 176.531L375.905 176.531L375.905 61.4816C375.905 60.3113 374.905 59.391 373.739 59.4885L336.251 62.6237C318.5 64.1083 300.626 62.6224 283.364 58.2271C259.485 52.1469 234.525 51.6566 210.425 56.7942L201.879 58.6162C180.074 63.2645 157.556 63.4703 135.67 59.2212L129.415 58.0068C109.583 54.1566 89.147 54.7278 69.5617 59.6799C45.8485 65.6756 20.9644 65.231 -2.51951 58.392L-7.55665 56.925L-7.55664 176.531Z" fill="url(#paint0_linear)"/>
<mask id="mask1" mask-type="alpha" maskUnits="userSpaceOnUse" x="-8" y="53" width="384" height="104">
<path d="M-7.55664 156.091L375.905 156.091L375.905 61.559C375.905 60.3933 374.912 59.4747 373.75 59.565L336.166 62.4866C318.455 63.8634 300.638 62.4815 283.351 58.3903C259.437 52.7308 234.587 52.2738 210.482 57.0503L201.893 58.7522C180.049 63.0806 157.586 63.2724 135.672 59.3177L129.367 58.18C109.535 54.6011 89.1787 55.1335 69.5606 59.744C45.7913 65.3301 21.0056 64.9146 -2.56304 58.5349L-7.55665 57.1832L-7.55664 156.091Z" fill="#0B30F5"/>
</mask>
<g mask="url(#mask1)">
<path d="M414.658 27.9624L-11.3585 30.3972L-11.3519 70.4674C-11.3518 71.429 -10.2885 72.0132 -9.47905 71.4963L3.03174 63.5075C35.0479 43.0635 76.0429 42.9805 108.258 63.2945L116.588 68.5475C143.39 85.448 177.451 85.5599 204.267 68.8357L213.695 62.9563C237.623 48.033 268.396 49.8078 290.542 67.3885C316.859 88.28 354.539 86.4315 378.559 63.0704L414.658 27.9624Z" fill="white" fill-opacity="0.2"/>
</g>
<mask id="mask2" mask-type="alpha" maskUnits="userSpaceOnUse" x="-8" y="53" width="384" height="94">
<path d="M-7.55664 146.671L375.905 146.671L375.905 60.6917C375.905 59.5315 374.921 58.6147 373.764 58.6967L336.074 61.3669C318.406 62.6187 300.65 61.3584 283.336 57.6239C259.386 52.458 234.655 52.0403 210.544 56.3945L201.909 57.9541C180.022 61.9067 157.62 62.0821 135.673 58.4726L129.315 57.4268C109.482 54.165 89.213 54.6514 69.5595 58.861C45.7293 63.9653 21.0504 63.5843 -2.61092 57.747L-7.55664 56.5269L-7.55664 146.671Z" fill="#0B30F5"/>
</mask>
<g mask="url(#mask2)">
<mask id="mask3" mask-type="alpha" maskUnits="userSpaceOnUse" x="-8" y="53" width="384" height="94">
<path d="M-7.55664 146.671L375.905 146.671L375.905 60.6917C375.905 59.5315 374.921 58.6147 373.764 58.6967L336.074 61.3669C318.406 62.6187 300.65 61.3584 283.336 57.6239C259.386 52.458 234.655 52.0403 210.544 56.3945L201.909 57.954C180.022 61.9067 157.62 62.0821 135.673 58.4726L129.315 57.4268C109.482 54.1649 89.213 54.6514 69.5595 58.861C45.7293 63.9652 21.0504 63.5843 -2.61091 57.747L-7.55664 56.5269L-7.55664 146.671Z" fill="#0B30F5"/>
</mask>
<g mask="url(#mask3)">
<path d="M-77.4951 -174.938L377.552 -206.87L381.451 84.2321C381.466 85.3407 380.264 86.0737 379.312 85.5366L329.299 57.3143C308.238 45.43 281.635 48.2107 262.666 64.2791C246.277 78.1618 223.943 82.2845 204.283 75.0565L176.357 64.7899C154.156 56.6278 129.338 57.951 107.579 68.4569L82.2975 80.6642C68.8134 87.175 53.087 85.9625 41.1851 77.4944C25.2976 66.1908 3.28769 68.1512 -11.0972 82.1511L-40.0194 110.299L-77.4951 -174.938Z" fill="white" fill-opacity="0.3"/>
</g>
</g>
</g>
<defs>
<linearGradient id="paint0_linear" x1="184.174" y1="176.531" x2="184.174" y2="48.9839" gradientUnits="userSpaceOnUse">
<stop stop-color="#1E6BFF"/>
<stop offset="1" stop-color="#00C2B2"/>
</linearGradient>
</defs>
</svg>
